#N canvas 133 99 524 330 10;
#X declare -lib pdcontainer;
#X obj 103 100 hsl 69 25 0 100 0 0 empty empty \$2 10 13 0 15 -58255
-262144 -92704 0 1;
#X obj 100 74 init 0;
#X obj 369 100 r \$0_label;
#X obj -50 185 s \$0_label;
#X obj -50 77 inlet;
#X msg -50 158 label /\$1/aux/\$2/fader;
#X obj 188 100 state_io_set /\$1/aux/\$2/fader;
#X obj -50 135 pack s s;
#X obj 25 106 symbol \$2;
#X obj -50 107 symbol \$1;
#X obj 25 79 loadbang;
#X connect 0 0 6 0;
#X connect 1 0 0 0;
#X connect 2 0 6 1;
#X connect 4 0 9 0;
#X connect 5 0 3 0;
#X connect 6 0 0 0;
#X connect 7 0 5 0;
#X connect 8 0 7 1;
#X connect 9 0 7 0;
#X connect 10 0 8 0;
#X coords 0 -1 1 1 74 25 2 100 100;
