#N canvas 972 281 688 543 10;
#X declare -lib pdcontainer;
#X obj -16 39 cnv 15 300 300 empty empty empty 20 12 0 14 -12515 -66577
0;
#X obj 100 102 vsl 32 159 0 112 0 0 empty empty F 10 70 0 22 -58255
-262144 -92704 0 1;
#X obj 286 100 r \$0_label;
#X obj 144 101 state_io_set /\$1/fader;
#X obj 101 76 init 0;
#X obj -6 135 s \$0_label;
#X obj -6 85 inlet;
#X msg -6 110 label /\$1/fader;
#X obj 178 207 nbx 5 14 -1e+037 1e+037 0 0 empty empty empty 0 -8 0
10 -262144 -1 -1 0 256;
#X connect 1 0 3 0;
#X connect 1 0 8 0;
#X connect 2 0 3 1;
#X connect 3 0 1 0;
#X connect 4 0 1 0;
#X connect 6 0 7 0;
#X connect 7 0 5 0;
#X coords 0 -1 1 1 32 164 2 100 100;
