#N canvas 511 283 570 325 10;
#X obj 222 279 s;
#X obj 371 146 loadbang;
#X obj 222 41 t s s;
#X obj 445 240 symbol /\$1/\$2;
#X obj 282 54 loadbang;
#X obj 282 82 symbol \$2;
#X obj 222 105 pack s s;
#X obj 222 13 inlet;
#X msg 222 139 rename /\$1/\$2;
#X obj 373 219 f \$3;
#X msg 373 240 resize \$1;
#X obj 250 217 pack 0 \$5 \$3 \$4;
#X msg 250 241 bounds \$1 \$2 \$3 \$4;
#X obj 371 168 t b b b;
#X obj 100 100 cnv 15 80 56 empty empty empty 20 12 0 14 -167231 -66577
0;
#N canvas 1139 220 1680 968 (subpatch) 0;
#X array /\$1/\$2 256 float 0;
#X coords 0 1 256 0 80 56 1 0 0;
#X restore 100 100 graph;
#X connect 1 0 13 0;
#X connect 2 0 0 1;
#X connect 2 1 6 0;
#X connect 3 0 0 1;
#X connect 4 0 5 0;
#X connect 5 0 6 1;
#X connect 6 0 8 0;
#X connect 7 0 2 0;
#X connect 8 0 0 0;
#X connect 9 0 10 0;
#X connect 10 0 0 0;
#X connect 11 0 12 0;
#X connect 12 0 0 0;
#X connect 13 0 11 0;
#X connect 13 1 9 0;
#X connect 13 2 3 0;
#X coords 0 -1 1 1 80 56 2 100 100;
