#N canvas 168 313 610 452 10;
#X obj 100 100 tgl 60 0 empty empty Fase 5 30 0 22 -99865 -159808 -92704
1 1;
#X obj -29 238 s \$0_label;
#X obj 306 101 r \$0_label;
#X obj -29 185 inlet;
#X obj 170 101 state_io_set /\$1/fase;
#X obj 101 75 init 0;
#X msg -29 211 label /\$1/fase;
#X obj 190 203 nbx 5 14 -1e+037 1e+037 0 0 empty empty empty 0 -8 0
10 -262144 -1 -1 1 256;
#X obj 101 279 pack s f;
#X obj 101 328 s pack_osc;
#X obj 190 231 f;
#X obj 101 166 t b f;
#X msg 101 303 \$1 \$2;
#X msg 101 231 /\$1/fase;
#X obj 101 202 symbol \$1;
#X obj 101 255 symbol;
#X obj 409 188 print ameego;
#X connect 0 0 4 0;
#X connect 0 0 11 0;
#X connect 2 0 4 1;
#X connect 2 0 16 0;
#X connect 3 0 6 0;
#X connect 3 0 14 0;
#X connect 4 0 0 0;
#X connect 5 0 0 0;
#X connect 6 0 1 0;
#X connect 7 0 10 0;
#X connect 8 0 12 0;
#X connect 10 0 8 1;
#X connect 11 0 14 0;
#X connect 11 1 7 0;
#X connect 12 0 9 0;
#X connect 13 0 15 0;
#X connect 14 0 13 0;
#X connect 15 0 8 0;
#X coords 0 -1 1 1 28 28 2 100 100;
