#N canvas 660 239 666 370 10;
#X declare -lib pdcontainer;
#X obj 100 100 tgl 60 0 empty empty Solo 5 28 0 22 -4182 -260097 -92704
0 1;
#X obj 305 101 r \$0_label;
#X obj 170 101 state_io_set /\$1/solo;
#X obj 1 149 s \$0_label;
#X obj 1 99 inlet;
#X msg 1 124 label /\$1/solo;
#X connect 0 0 2 0;
#X connect 1 0 2 1;
#X connect 2 0 0 0;
#X connect 4 0 5 0;
#X connect 5 0 3 0;
#X coords 0 -1 1 1 60 60 2 100 100;
