#N canvas 759 3 505 658 10;
#X declare -lib pdcontainer;
#X obj 405 132 r \$0_label;
#X obj 210 134 init 0;
#X obj 138 129 knob 32 32 0 100 0 1 empty empty SOLO 2 -10 0 12 -262144
-261234 -1 3000 1;
#X obj 254 110 inlet;
#X obj 254 164 outlet;
#X obj 254 133 state_io_set /solo/fader;
#X obj 1 285 s \$0_label;
#X obj 1 215 inlet;
#X obj 237 233 nbx 5 14 -1e+037 1e+037 0 0 empty empty empty 0 -8 0
10 -262144 -1 -1 96.7742 256;
#X obj 138 310 pack s f;
#X obj 138 358 s pack_osc;
#X obj 237 254 f;
#X obj 138 196 t b f;
#X msg 138 335 \$1 \$2;
#X obj 138 232 symbol \$1;
#X obj 138 285 symbol;
#X msg 138 259 /solo/fader;
#X msg 1 260 label /solo/fader;
#X connect 0 0 5 1;
#X connect 1 0 4 0;
#X connect 2 0 12 0;
#X connect 3 0 5 0;
#X connect 3 0 2 0;
#X connect 5 0 4 0;
#X connect 5 0 2 0;
#X connect 7 0 17 0;
#X connect 7 0 14 0;
#X connect 8 0 11 0;
#X connect 9 0 13 0;
#X connect 11 0 9 1;
#X connect 12 0 14 0;
#X connect 12 1 8 0;
#X connect 13 0 10 0;
#X connect 14 0 16 0;
#X connect 15 0 9 0;
#X connect 16 0 15 0;
#X connect 17 0 6 0;
#X coords 0 -1 1 1 107 82 2 100 100;
