#N canvas 110 56 1362 719 10;
#X obj 17 258 loadbang;
#X msg 17 286 \; pd dsp 1;
#X obj 16 233 recordplayer8~;
#X obj 19 -2 path ./lib;
#X obj 19 18 path ./lib/canales;
#X obj 19 38 path ./lib/eq;
#X obj 19 59 path ./lib/process;
#X obj 19 79 path ./lib/rec-play;
#X obj 19 99 path ./lib/setup;
#X obj 19 138 path ./extra/multicatch;
#X obj 19 158 path ./extra/mmb;
#X obj 19 119 path ./lib/ui;
#X obj 19 178 path ./extra/state_manager;
#X obj 19 197 path ./extra/osclearn;
#X obj 663 309 setup_osc_send_receive;
#X obj 662 175 state_manager;
#X obj 674 55 loadbang;
#X msg 662 105 dir ../../presets \, name init \, load;
#X msg 674 137 print;
#X obj 662 35 bng 15 250 50 0 empty empty empty 17 7 0 10 -262144 -1
-1;
#X msg 736 137 dump;
#X obj 797 136 r /dump;
#X obj 848 136 print dump;
#X obj 674 79 delay 1000;
#X obj 774 137 bng 15 250 50 0 empty empty empty 17 7 0 10 -262144
-1 -1;
#N canvas 214 216 796 252 outs 0;
#X obj 709 27 inlet~;
#X obj 551 173 mcatch~ SOLO_L;
#X obj 594 195 mcatch~ SOLO_R;
#X obj 20 136 dac~ 1 2;
#X obj 167 134 dac~ 3;
#X obj 166 25 mcatch~ DAC_3;
#X obj 256 26 mcatch~ DAC_4;
#X obj 257 134 dac~ 4;
#X obj 346 25 mcatch~ DAC_5;
#X obj 436 26 mcatch~ DAC_6;
#X obj 347 134 dac~ 5;
#X obj 437 134 dac~ 6;
#X obj 546 129 dac~ 7 8;
#X obj 545 29 Solo_Bus_Stereo solo SOLO;
#X obj 21 25 mcatch~ DAC12_L;
#X obj 65 45 mcatch~ DAC12_R;
#X connect 5 0 4 0;
#X connect 6 0 7 0;
#X connect 8 0 10 0;
#X connect 9 0 11 0;
#X connect 13 0 12 0;
#X connect 13 1 12 1;
#X connect 14 0 3 0;
#X connect 15 0 3 1;
#X restore 216 403 pd outs;
#X obj 256 251 channel_sIn_1_sOut_1~ G12 G12 L-R;
#X obj 256 281 channel_sIn_1_sOut_1~ G34 G34 L-R;
#X obj 256 311 channel_sIn_1_sOut_1~ G56 G56 L-R;
#X obj 256 341 channel_sIn_1_sOut_1~ G78 G78 L-R;
#X obj 256 111 channel_mIn_1_mOut_1~ AUX1 AUX1 DAC_3;
#X obj 256 141 channel_mIn_1_mOut_1~ AUX2 AUX2 DAC_4;
#X obj 256 171 channel_mIn_1_mOut_1~ AUX3 AUX3 DAC_5;
#X obj 256 201 channel_mIn_1_mOut_1~ AUX4 AUX4 DAC_6;
#X obj 236 58 channel_mIn_1_mAux_4_sOut_5~ CH1 ADC1 AUX1 AUX2 AUX3
AUX4 G12 G34 G56 G78 L-R;
#N canvas 403 201 721 241 inputs 0;
#X obj 11 200 outlet~;
#X obj 147 7 noise~;
#X obj 10 89 adc~ 1;
#X obj 90 88 adc~ 2;
#X obj 170 88 adc~ 3;
#X obj 250 89 adc~ 4;
#X obj 330 88 adc~ 5;
#X obj 410 88 adc~ 6;
#X obj 490 88 adc~ 7;
#X obj 570 89 adc~ 8;
#X obj 11 163 mthrow~ ADC1;
#X obj 91 163 mthrow~ ADC2;
#X obj 171 163 mthrow~ ADC3;
#X obj 251 163 mthrow~ ADC4;
#X obj 331 163 mthrow~ ADC5;
#X obj 411 163 mthrow~ ADC6;
#X obj 491 164 mthrow~ ADC7;
#X obj 571 163 mthrow~ ADC8;
#X obj 10 125 playrec~ CH1;
#X obj 90 125 playrec~ CH2;
#X obj 170 125 playrec~ CH3;
#X obj 250 125 playrec~ CH4;
#X obj 330 125 playrec~ CH5;
#X obj 410 125 playrec~ CH6;
#X obj 490 125 playrec~ CH7;
#X obj 570 125 playrec~ CH8;
#X connect 1 0 18 0;
#X connect 1 0 19 0;
#X connect 2 0 18 0;
#X connect 3 0 19 0;
#X connect 4 0 20 0;
#X connect 5 0 21 0;
#X connect 6 0 22 0;
#X connect 7 0 23 0;
#X connect 8 0 24 0;
#X connect 9 0 25 0;
#X connect 18 0 10 0;
#X connect 19 0 11 0;
#X connect 20 0 12 0;
#X connect 21 0 13 0;
#X connect 22 0 14 0;
#X connect 23 0 15 0;
#X connect 24 0 16 0;
#X connect 25 0 17 0;
#X restore 217 24 pd inputs;
#N canvas 190 228 685 332 eq 0;
#N canvas 384 226 753 319 editorCH4 0;
#X obj 23 -17 eq.panel CH4;
#X restore 38 109 pd editorCH4;
#N canvas 382 235 753 319 editorCH5 0;
#X obj 33 -7 eq.panel CH5;
#X restore 38 130 pd editorCH5;
#N canvas 508 209 753 319 editorCH6 0;
#X obj 47 49 eq.panel CH6;
#X restore 38 151 pd editorCH6;
#N canvas 348 177 753 319 editorCH7 0;
#X obj 54 1 eq.panel CH7;
#X restore 38 173 pd editorCH7;
#N canvas 545 173 758 289 editorCH8 0;
#X obj 34 -14 eq.panel CH8;
#X restore 38 193 pd editorCH8;
#N canvas 445 120 753 319 editorCH3 0;
#X obj 17 -23 eq.panel CH3;
#X restore 38 89 pd editorCH3;
#N canvas 554 160 753 319 editorCH2 0;
#X obj 20 -24 eq.panel CH2;
#X restore 38 68 pd editorCH2;
#N canvas 99 458 696 236 editorCH1 0;
#X obj 15 -1 eq.panel CH1;
#X restore 38 47 pd editorCH1;
#X text 41 9 seguir poniendo CHX adentro;
#N canvas 621 393 696 236 editorAUX1 0;
#X obj 15 -1 eq.panel AUX1;
#X restore 318 47 pd editorAUX1;
#N canvas 554 160 753 319 editorAUX2 0;
#X obj 20 -24 eq.panel AUX2;
#X restore 318 68 pd editorAUX2;
#N canvas 445 120 753 319 editorAUX3 0;
#X obj 17 -23 eq.panel AUX3;
#X restore 318 89 pd editorAUX3;
#N canvas 384 226 753 319 editorAUX4 0;
#X obj 23 -17 eq.panel AUX4;
#X restore 318 109 pd editorAUX4;
#N canvas 382 235 753 319 editorG12 0;
#X obj 33 -7 eq.panel G12;
#X restore 318 130 pd editorG12;
#N canvas 417 73 753 319 editorG34 0;
#X obj 47 49 eq.panel G34;
#X restore 318 151 pd editorG34;
#N canvas 348 177 753 319 editorG56 0;
#X obj 54 1 eq.panel G56;
#X restore 318 173 pd editorG56;
#N canvas 545 173 758 289 editorG78 0;
#X obj 34 -14 eq.panel G78;
#X restore 318 193 pd editorG78;
#N canvas 545 173 758 289 editorL-R 0;
#X obj 34 -14 eq.panel L-R;
#X restore 318 213 pd editorL-R;
#X obj 420 48 spectrum-control AUX1;
#X obj 140 48 spectrum-control CH1;
#X obj 141 129 spectrum-control CH5;
#X obj 141 149 spectrum-control CH6;
#X obj 141 169 spectrum-control CH7;
#X obj 141 189 spectrum-control CH8;
#X obj 140 68 spectrum-control CH2;
#X obj 140 88 spectrum-control CH3;
#X obj 140 109 spectrum-control CH4;
#X obj 420 68 spectrum-control AUX2;
#X obj 420 88 spectrum-control AUX3;
#X obj 420 109 spectrum-control AUX4;
#X obj 418 130 spectrum-control-stereo G12;
#X obj 418 150 spectrum-control-stereo G34;
#X obj 418 170 spectrum-control-stereo G56;
#X obj 418 190 spectrum-control-stereo G78;
#X obj 418 210 spectrum-control-stereo L-R;
#X restore 17 338 pd eq and spectrum;
#X obj 236 371 channel_sIn_1_sOut_1~ L-R L-R DAC12;
#X connect 0 0 1 0;
#X connect 16 0 23 0;
#X connect 17 0 15 0;
#X connect 18 0 15 0;
#X connect 19 0 17 0;
#X connect 20 0 15 0;
#X connect 21 0 22 0;
#X connect 21 0 24 0;
#X connect 23 0 17 0;
#X connect 24 0 20 0;
#X connect 26 0 27 0;
#X connect 27 0 28 0;
#X connect 28 0 29 0;
#X connect 29 0 37 0;
#X connect 30 0 31 0;
#X connect 31 0 32 0;
#X connect 32 0 33 0;
#X connect 33 0 26 0;
#X connect 34 0 30 0;
#X connect 35 0 34 0;
#X connect 37 0 25 0;
