#N canvas 282 11 627 700 10;
#X declare -path ./extra/multicatch;
#X declare -path ./extra/mmb;
#X declare -path ./lib;
#X declare -path ./lib/canales;
#X declare -path ./lib/rec-play;
#X declare -lib multicatch;
#X declare -path lib;
#X declare -lib multicatch;
#X declare -path lib;
#X declare -lib multicatch;
#X declare -path lib;
#X declare -lib multicatch;
#X declare -path lib;
#X declare -lib multicatch;
#X declare -path lib;
#X declare -lib multicatch;
#X declare -path lib;
#X declare -lib multicatch;
#X declare -path lib;
#X declare -lib multicatch;
#X declare -path lib;
#X declare -lib multicatch;
#X declare -path lib;
#X declare -lib multicatch;
#X declare -path lib;
#X declare -lib multicatch;
#X declare -path lib;
#X declare -lib multicatch;
#X declare -path lib;
#X declare -lib multicatch;
#X declare -path lib;
#X declare -lib multicatch;
#X declare -path lib;
#X declare -lib multicatch;
#X declare -path lib;
#X declare -lib multicatch;
#X declare -path lib;
#X declare -lib multicatch;
#X declare -path lib;
#X declare -lib multicatch;
#X declare -path lib;
#X obj 17 48 path ./extra/multicatch;
#X obj 17 68 path ./extra/mmb;
#X obj 16 133 loadbang;
#X msg 16 161 \; pd dsp 1;
#X obj 17 -12 path ./lib;
#X obj 17 8 path ./lib/canales;
#X obj 17 28 path ./lib/rec-play;
#X obj 15 108 recordplayer8~;
#N canvas 214 216 796 252 outs 1;
#X obj 709 27 inlet~;
#X obj 551 173 mcatch~ SOLO_L;
#X obj 594 195 mcatch~ SOLO_R;
#X obj 20 136 dac~ 1 2;
#X obj 21 25 mcatch~ DAC_L;
#X obj 65 45 mcatch~ DAC_R;
#X obj 167 134 dac~ 3;
#X obj 166 25 mcatch~ DAC_3;
#X obj 256 26 mcatch~ DAC_4;
#X obj 257 134 dac~ 4;
#X obj 346 25 mcatch~ DAC_5;
#X obj 436 26 mcatch~ DAC_6;
#X obj 347 134 dac~ 5;
#X obj 437 134 dac~ 6;
#X obj 546 129 dac~ 7 8;
#X obj 545 29 Solo_Bus_Stereo solo SOLO;
#X connect 4 0 3 0;
#X connect 5 0 3 1;
#X connect 7 0 6 0;
#X connect 8 0 9 0;
#X connect 10 0 12 0;
#X connect 11 0 13 0;
#X connect 15 0 14 0;
#X connect 15 1 14 1;
#X restore 216 640 pd outs;
#X obj 216 611 channel_sIn_1_sOut_1~ L-R L-R DAC;
#X obj 236 491 channel_sIn_1_sOut_1~ G12 G12 L-R;
#X obj 236 521 channel_sIn_1_sOut_1~ G34 G34 L-R;
#X obj 236 551 channel_sIn_1_sOut_1~ G56 G56 L-R;
#X obj 236 581 channel_sIn_1_sOut_1~ G78 G78 L-R;
#X obj 236 351 channel_mIn_1_mOut_1~ AUX1 AUX1 DAC_3;
#X obj 236 381 channel_mIn_1_mOut_1~ AUX2 AUX2 DAC_4;
#X obj 236 411 channel_mIn_1_mOut_1~ AUX3 AUX3 DAC_5;
#X obj 236 441 channel_mIn_1_mOut_1~ AUX4 AUX4 DAC_6;
#X obj 226 28 channel_mIn_1_mAux_4_sOut_5~ CH1 ADC1 AUX1 AUX2 AUX3
AUX4 G12 G34 G56 G78 L-R;
#X obj 226 68 channel_mIn_1_mAux_4_sOut_5~ CH2 ADC2 AUX1 AUX2 AUX3
AUX4 G12 G34 G56 G78 L-R;
#X obj 226 108 channel_mIn_1_mAux_4_sOut_5~ CH3 ADC3 AUX1 AUX2 AUX3
AUX4 G12 G34 G56 G78 L-R;
#X obj 226 148 channel_mIn_1_mAux_4_sOut_5~ CH4 ADC4 AUX1 AUX2 AUX3
AUX4 G12 G34 G56 G78 L-R;
#X obj 226 188 channel_mIn_1_mAux_4_sOut_5~ CH5 ADC5 AUX1 AUX2 AUX3
AUX4 G12 G34 G56 G78 L-R;
#X obj 226 228 channel_mIn_1_mAux_4_sOut_5~ CH6 ADC6 AUX1 AUX2 AUX3
AUX4 G12 G34 G56 G78 L-R;
#X obj 226 268 channel_mIn_1_mAux_4_sOut_5~ CH7 ADC7 AUX1 AUX2 AUX3
AUX4 G12 G34 G56 G78 L-R;
#X obj 226 308 channel_mIn_1_mAux_4_sOut_5~ CH8 ADC8 AUX1 AUX2 AUX3
AUX4 G12 G34 G56 G78 L-R;
#N canvas 403 201 721 241 inputs 0;
#X obj 11 200 outlet~;
#X obj 147 7 noise~;
#X obj 10 89 adc~ 1;
#X obj 90 88 adc~ 2;
#X obj 170 88 adc~ 3;
#X obj 250 89 adc~ 4;
#X obj 330 88 adc~ 5;
#X obj 410 88 adc~ 6;
#X obj 490 88 adc~ 7;
#X obj 570 89 adc~ 8;
#X obj 11 163 mthrow~ ADC1;
#X obj 91 163 mthrow~ ADC2;
#X obj 171 163 mthrow~ ADC3;
#X obj 251 163 mthrow~ ADC4;
#X obj 331 163 mthrow~ ADC5;
#X obj 411 163 mthrow~ ADC6;
#X obj 491 164 mthrow~ ADC7;
#X obj 571 163 mthrow~ ADC8;
#X obj 10 125 playrec~ CH1;
#X obj 90 125 playrec~ CH2;
#X obj 170 125 playrec~ CH3;
#X obj 250 125 playrec~ CH4;
#X obj 330 125 playrec~ CH5;
#X obj 410 125 playrec~ CH6;
#X obj 490 125 playrec~ CH7;
#X obj 570 125 playrec~ CH8;
#X connect 1 0 18 0;
#X connect 2 0 18 0;
#X connect 3 0 19 0;
#X connect 4 0 20 0;
#X connect 5 0 21 0;
#X connect 6 0 22 0;
#X connect 7 0 23 0;
#X connect 8 0 24 0;
#X connect 9 0 25 0;
#X connect 18 0 10 0;
#X connect 19 0 11 0;
#X connect 20 0 12 0;
#X connect 21 0 13 0;
#X connect 22 0 14 0;
#X connect 23 0 15 0;
#X connect 24 0 16 0;
#X connect 25 0 17 0;
#X restore 217 -6 pd inputs;
#X connect 2 0 3 0;
#X connect 9 0 8 0;
#X connect 10 0 11 0;
#X connect 11 0 12 0;
#X connect 12 0 13 0;
#X connect 13 0 9 0;
#X connect 14 0 15 0;
#X connect 15 0 16 0;
#X connect 16 0 17 0;
#X connect 17 0 10 0;
#X connect 18 0 19 0;
#X connect 19 0 20 0;
#X connect 20 0 21 0;
#X connect 21 0 22 0;
#X connect 22 0 23 0;
#X connect 23 0 24 0;
#X connect 24 0 25 0;
#X connect 25 0 14 0;
#X connect 26 0 18 0;
