#N canvas -8 -8 1600 818 10;
#X declare -path ./lib/canales;
#X declare -path ./lib;
#X declare -path ./lib/eq;
#X declare -path ./lib/process;
#X declare -path ./lib/rec-play;
#X declare -path ./lib/setup;
#X declare -path ./lib/ui;
#X declare -path ./extra/multicatch;
#X declare -path ./extra/mmb;
#X declare -path ./extra/state_manager;
#X declare -path ./extra/osclearn;
#N canvas 7 50 1600 818 control 0;
#X obj 20 20 cnv 15 1515 850 empty empty empty 20 12 0 14 -8345 -66577
0;
#X obj 36 36 channel_mIn_1_mAux_4_sOut_5 CH1 AUX1 AUX2 AUX3 AUX4 G12
G34 G56 G78 L-R;
#X obj 727 278 channel_mIn_1_mOut_1 AUX1;
#X obj 1083 277 channel_sIn_1_sOut_1 G12;
#X obj 1373 144 playrec-control;
#X obj 729 184 setup-control;
#X obj 953 55 state_manager;
#X obj 1614 45 loadbang;
#X msg 1602 95 dir ../../presets \, name init \, load;
#X msg 1614 127 print;
#X obj 1602 24 bng 15 250 50 0 empty empty empty 17 7 0 10 -262144
-1 -1;
#X obj 1119 -37 setup_osc_send_receive;
#X obj 811 278 channel_mIn_1_mOut_1 AUX2;
#X obj 895 278 channel_mIn_1_mOut_1 AUX3;
#X obj 979 278 channel_mIn_1_mOut_1 AUX4;
#X obj 1167 277 channel_sIn_1_sOut_1 G34;
#X obj 1251 277 channel_sIn_1_sOut_1 G56;
#X obj 1335 277 channel_sIn_1_sOut_1 G78;
#X obj 1439 277 channel_sIn_1_sOut_1 L-R;
#X msg 1733 160 dump;
#X obj 120 35 channel_mIn_1_mAux_4_sOut_5 CH2 AUX1 AUX2 AUX3 AUX4 G12
G34 G56 G78 L-R;
#X obj 204 35 channel_mIn_1_mAux_4_sOut_5 CH3 AUX1 AUX2 AUX3 AUX4 G12
G34 G56 G78 L-R;
#X obj 288 35 channel_mIn_1_mAux_4_sOut_5 CH4 AUX1 AUX2 AUX3 AUX4 G12
G34 G56 G78 L-R;
#X obj 372 35 channel_mIn_1_mAux_4_sOut_5 CH5 AUX1 AUX2 AUX3 AUX4 G12
G34 G56 G78 L-R;
#X obj 456 35 channel_mIn_1_mAux_4_sOut_5 CH6 AUX1 AUX2 AUX3 AUX4 G12
G34 G56 G78 L-R;
#X obj 540 35 channel_mIn_1_mAux_4_sOut_5 CH7 AUX1 AUX2 AUX3 AUX4 G12
G34 G56 G78 L-R;
#X obj 624 35 channel_mIn_1_mAux_4_sOut_5 CH8 AUX1 AUX2 AUX3 AUX4 G12
G34 G56 G78 L-R;
#X obj 1779 128 r /dump;
#X obj 1779 160 print dump;
#X obj 1733 131 bng 15 250 50 0 empty empty empty 17 7 0 10 -262144
-1 -1;
#X obj 1614 69 delay 3000;
#X obj 27 -22 declare -path ./lib/canales;
#X obj 27 -42 declare -path ./lib;
#X obj 27 -2 declare -path ./lib/eq;
#X obj 227 -41 declare -path ./lib/process;
#X obj 227 -21 declare -path ./lib/rec-play;
#X obj 227 -1 declare -path ./lib/setup;
#X obj 437 -41 declare -path ./lib/ui;
#X obj 437 -22 declare -path ./extra/multicatch;
#X obj 437 -2 declare -path ./extra/mmb;
#X obj 667 -42 declare -path ./extra/state_manager;
#X obj 667 -23 declare -path ./extra/osclearn;
#X connect 7 0 30 0;
#X connect 8 0 6 0;
#X connect 9 0 6 0;
#X connect 10 0 8 0;
#X connect 19 0 6 0;
#X connect 27 0 19 0;
#X connect 27 0 28 0;
#X connect 29 0 19 0;
#X connect 30 0 8 0;
#X coords 0 -1 1 1 1515 850 1 20 20;
#X restore 9 0 pd control;
