#N canvas 0 1 1353 552 10;
#X declare -path ./lib;
#X declare -path ./lib/canales;
#X declare -path ./extra/multicatch;
#X declare -path ./extra/mmb;
#X declare -path ./extra/state_manager;
#X declare -path ./extra/multicatch;
#X declare -path ./extra/mmb;
#X declare -path ./lib;
#X declare -path ./lib/canales;
#X declare -path ./lib/rec-play;
#X declare -lib multicatch;
#X declare -path lib;
#X declare -lib multicatch;
#X declare -path lib;
#X declare -lib multicatch;
#X declare -path lib;
#X declare -lib multicatch;
#X declare -path lib;
#X declare -lib multicatch;
#X declare -path lib;
#X declare -lib multicatch;
#X declare -path lib;
#X declare -lib multicatch;
#X declare -path lib;
#X declare -lib multicatch;
#X declare -path lib;
#X declare -lib multicatch;
#X declare -path lib;
#X declare -lib multicatch;
#X declare -path lib;
#X declare -lib multicatch;
#X declare -path lib;
#X declare -lib multicatch;
#X declare -path lib;
#X declare -lib multicatch;
#X declare -path lib;
#X declare -lib multicatch;
#X declare -path lib;
#X declare -lib multicatch;
#X declare -path lib;
#X declare -lib multicatch;
#X declare -path lib;
#X declare -lib multicatch;
#X declare -path lib;
#X declare -lib multicatch;
#X declare -path lib;
#X declare -lib pdcontainer;
#X declare -lib pdcontainer;
#X declare -lib pdcontainer;
#X declare -lib pdcontainer;
#X declare -lib pdcontainer;
#X declare -lib pdcontainer;
#X declare -lib pdcontainer;
#X declare -lib pdcontainer;
#X declare -lib pdcontainer;
#X declare -lib pdcontainer;
#X declare -lib pdcontainer;
#X declare -lib pdcontainer;
#X declare -lib pdcontainer;
#X declare -lib pdcontainer;
#X declare -lib pdcontainer;
#X declare -lib pdcontainer;
#X declare -lib pdcontainer;
#X declare -lib pdcontainer;
#X declare -lib pdcontainer;
#X declare -lib pdcontainer;
#X declare -lib pdcontainer;
#X declare -lib pdcontainer;
#X declare -lib pdcontainer;
#X declare -lib pdcontainer;
#X declare -lib pdcontainer;
#X declare -lib pdcontainer;
#X declare -lib pdcontainer;
#X declare -lib pdcontainer;
#X declare -lib pdcontainer;
#X declare -lib pdcontainer;
#X declare -lib pdcontainer;
#X declare -lib pdcontainer;
#X declare -lib pdcontainer;
#X declare -lib pdcontainer;
#X declare -path ./lib/rec-play;
#X declare -path ./extra/osclearn;
#X declare -path ../osclearn;
#X declare -lib mrpeach;
#X declare -lib pdcontainer;
#X declare -lib pdcontainer;
#X declare -lib pdcontainer;
#X declare -lib pdcontainer;
#X declare -lib pdcontainer;
#X declare -lib pdcontainer;
#X declare -lib pdcontainer;
#X declare -lib pdcontainer;
#X declare -lib pdcontainer;
#X declare -lib pdcontainer;
#X declare -lib pdcontainer;
#X declare -lib pdcontainer;
#X declare -lib pdcontainer;
#X declare -lib pdcontainer;
#X declare -lib pdcontainer;
#X declare -lib pdcontainer;
#X declare -lib pdcontainer;
#X declare -lib pdcontainer;
#X declare -lib pdcontainer;
#X declare -lib pdcontainer;
#X declare -lib pdcontainer;
#X declare -lib pdcontainer;
#X declare -lib pdcontainer;
#X declare -lib pdcontainer;
#X declare -lib pdcontainer;
#X declare -lib pdcontainer;
#X declare -lib pdcontainer;
#X declare -lib pdcontainer;
#X declare -lib pdcontainer;
#X declare -lib pdcontainer;
#X declare -lib pdcontainer;
#X declare -lib pdcontainer;
#X declare -lib pdcontainer;
#X declare -lib pdcontainer;
#X declare -lib pdcontainer;
#X declare -lib pdcontainer;
#X declare -lib pdcontainer;
#X declare -lib pdcontainer;
#X declare -lib pdcontainer;
#X declare -lib pdcontainer;
#X declare -lib pdcontainer;
#X declare -lib pdcontainer;
#X declare -lib pdcontainer;
#X declare -lib pdcontainer;
#X declare -lib pdcontainer;
#X declare -lib pdcontainer;
#X declare -lib pdcontainer;
#X declare -lib pdcontainer;
#X declare -lib pdcontainer;
#X declare -lib pdcontainer;
#X declare -lib pdcontainer;
#X declare -lib pdcontainer;
#X declare -lib pdcontainer;
#X declare -lib pdcontainer;
#X declare -lib pdcontainer;
#X declare -lib pdcontainer;
#X declare -lib pdcontainer;
#X declare -lib pdcontainer;
#X declare -lib pdcontainer;
#X declare -lib pdcontainer;
#X declare -lib pdcontainer;
#X declare -lib pdcontainer;
#X declare -lib pdcontainer;
#X declare -lib pdcontainer;
#X declare -lib pdcontainer;
#X declare -lib pdcontainer;
#X declare -lib pdcontainer;
#X declare -lib pdcontainer;
#X declare -lib pdcontainer;
#X declare -lib pdcontainer;
#X declare -lib pdcontainer;
#X declare -lib pdcontainer;
#X declare -lib pdcontainer;
#X declare -lib pdcontainer;
#X declare -lib pdcontainer;
#X declare -lib pdcontainer;
#X declare -lib pdcontainer;
#X declare -lib pdcontainer;
#X declare -lib pdcontainer;
#X declare -lib pdcontainer;
#X declare -lib pdcontainer;
#X declare -lib pdcontainer;
#X declare -lib pdcontainer;
#X declare -lib pdcontainer;
#X declare -lib pdcontainer;
#X declare -lib pdcontainer;
#X declare -lib pdcontainer;
#X declare -lib pdcontainer;
#X declare -lib pdcontainer;
#X declare -lib pdcontainer;
#X declare -lib pdcontainer;
#X declare -lib pdcontainer;
#X declare -lib pdcontainer;
#X declare -lib pdcontainer;
#X declare -lib pdcontainer;
#X declare -lib pdcontainer;
#X declare -lib pdcontainer;
#X declare -lib pdcontainer;
#X declare -lib pdcontainer;
#X declare -lib pdcontainer;
#X declare -lib pdcontainer;
#X declare -lib pdcontainer;
#X declare -lib pdcontainer;
#X declare -lib pdcontainer;
#X declare -lib pdcontainer;
#X declare -lib pdcontainer;
#X declare -lib pdcontainer;
#X declare -lib pdcontainer;
#X declare -lib pdcontainer;
#X declare -lib pdcontainer;
#X declare -lib pdcontainer;
#X declare -lib pdcontainer;
#X declare -lib pdcontainer;
#X declare -lib pdcontainer;
#X declare -lib pdcontainer;
#X declare -lib pdcontainer;
#X declare -lib pdcontainer;
#X declare -lib pdcontainer;
#X declare -lib pdcontainer;
#X declare -lib pdcontainer;
#X declare -lib pdcontainer;
#X declare -lib pdcontainer;
#X declare -lib pdcontainer;
#X declare -lib pdcontainer;
#X declare -lib pdcontainer;
#X declare -lib pdcontainer;
#X declare -lib pdcontainer;
#X declare -lib pdcontainer;
#X declare -lib pdcontainer;
#X declare -lib pdcontainer;
#X declare -lib pdcontainer;
#X declare -lib pdcontainer;
#X declare -lib pdcontainer;
#X declare -lib pdcontainer;
#X declare -lib pdcontainer;
#X declare -lib pdcontainer;
#X declare -lib pdcontainer;
#X declare -lib pdcontainer;
#X declare -lib pdcontainer;
#X declare -lib pdcontainer;
#X declare -lib pdcontainer;
#X declare -lib pdcontainer;
#X declare -lib pdcontainer;
#X declare -lib pdcontainer;
#X declare -lib pdcontainer;
#X declare -lib pdcontainer;
#X declare -lib pdcontainer;
#X declare -lib pdcontainer;
#X declare -lib pdcontainer;
#X declare -lib pdcontainer;
#X declare -lib pdcontainer;
#X declare -lib pdcontainer;
#X declare -lib pdcontainer;
#X declare -lib pdcontainer;
#X declare -lib pdcontainer;
#X declare -lib pdcontainer;
#X declare -lib pdcontainer;
#X declare -lib pdcontainer;
#X declare -lib pdcontainer;
#X declare -lib pdcontainer;
#X declare -lib pdcontainer;
#X declare -lib pdcontainer;
#X declare -lib pdcontainer;
#X declare -lib pdcontainer;
#X declare -lib pdcontainer;
#X declare -lib pdcontainer;
#X declare -lib pdcontainer;
#X declare -lib pdcontainer;
#X declare -lib pdcontainer;
#X declare -lib pdcontainer;
#X declare -lib pdcontainer;
#X declare -lib pdcontainer;
#X declare -lib pdcontainer;
#X declare -lib pdcontainer;
#X declare -lib pdcontainer;
#X declare -lib pdcontainer -lib tof;
#X obj 9 -12 path ./lib;
#X obj 9 -32 path ./lib/canales;
#X obj 137 -32 path ./extra/multicatch;
#X obj 137 -12 path ./extra/mmb;
#X obj 287 -32 path ./extra/state_manager;
#X obj 457 -5 prueba_8_canales_entrada_canales_salida;
#N canvas 1903 367 685 332 eq 0;
#N canvas 384 226 753 319 editorCH4 0;
#X obj 23 -17 eq.panel CH4;
#X restore 38 109 pd editorCH4;
#N canvas 382 235 753 319 editorCH5 0;
#X obj 33 -7 eq.panel CH5;
#X restore 38 130 pd editorCH5;
#N canvas 508 209 753 319 editorCH6 0;
#X obj 47 49 eq.panel CH6;
#X restore 38 151 pd editorCH6;
#N canvas 348 177 753 319 editorCH7 0;
#X obj 54 1 eq.panel CH7;
#X restore 38 173 pd editorCH7;
#N canvas 545 173 758 289 editorCH8 0;
#X obj 34 -14 eq.panel CH8;
#X restore 38 193 pd editorCH8;
#N canvas 445 120 753 319 editorCH3 0;
#X obj 17 -23 eq.panel CH3;
#X restore 38 89 pd editorCH3;
#N canvas 554 160 753 319 editorCH2 0;
#X obj 20 -24 eq.panel CH2;
#X restore 38 68 pd editorCH2;
#N canvas 621 393 696 236 editorCH1 0;
#X obj 15 -1 eq.panel CH1;
#X restore 38 47 pd editorCH1;
#X text 41 9 seguir poniendo CHX adentro;
#N canvas 621 393 696 236 editorAUX1 0;
#X obj 15 -1 eq.panel AUX1;
#X restore 318 47 pd editorAUX1;
#N canvas 554 160 753 319 editorAUX2 0;
#X obj 20 -24 eq.panel AUX2;
#X restore 318 68 pd editorAUX2;
#N canvas 445 120 753 319 editorAUX3 0;
#X obj 17 -23 eq.panel AUX3;
#X restore 318 89 pd editorAUX3;
#N canvas 384 226 753 319 editorAUX4 0;
#X obj 23 -17 eq.panel AUX4;
#X restore 318 109 pd editorAUX4;
#N canvas 382 235 753 319 editorG12 0;
#X obj 33 -7 eq.panel G12;
#X restore 318 130 pd editorG12;
#N canvas 508 209 753 319 editorG34 0;
#X obj 47 49 eq.panel G34;
#X restore 318 151 pd editorG34;
#N canvas 348 177 753 319 editorG56 0;
#X obj 54 1 eq.panel G56;
#X restore 318 173 pd editorG56;
#N canvas 545 173 758 289 editorG78 0;
#X obj 34 -14 eq.panel G78;
#X restore 318 193 pd editorG78;
#N canvas 545 173 758 289 editorL-R 0;
#X obj 34 -14 eq.panel L-R;
#X restore 318 213 pd editorL-R;
#X obj 420 48 spectrum-control AUX1;
#X obj 140 48 spectrum-control CH1;
#X obj 141 129 spectrum-control CH5;
#X obj 141 149 spectrum-control CH6;
#X obj 141 169 spectrum-control CH7;
#X obj 141 189 spectrum-control CH8;
#X obj 140 68 spectrum-control CH2;
#X obj 140 88 spectrum-control CH3;
#X obj 140 109 spectrum-control CH4;
#X obj 420 68 spectrum-control AUX2;
#X obj 420 88 spectrum-control AUX3;
#X obj 420 109 spectrum-control AUX4;
#X obj 418 130 spectrum-control-stereo G12;
#X obj 418 150 spectrum-control-stereo G34;
#X obj 418 170 spectrum-control-stereo G56;
#X obj 418 190 spectrum-control-stereo G78;
#X obj 418 210 spectrum-control-stereo L-R;
#X restore 457 -32 pd eq and spectrum;
#X obj 9 8 path ./lib/rec-play;
#X obj 287 -13 path ./extra/osclearn;
#X obj 716 -7 setup_osc_send_receive;
#X obj 2 33 channel_mIn_1_mAux_4_sOut_5 CH1 AUX1 AUX2 AUX3 AUX4 G12 G34 G56
G78 L-R;
#X obj 106 32 channel_mIn_1_mAux_4_sOut_5 CH2 AUX1 AUX2 AUX3 AUX4 G12 G34
G56 G78 L-R;
#X obj 210 32 channel_mIn_1_mAux_4_sOut_5 CH3 AUX1 AUX2 AUX3 AUX4 G12 G34
G56 G78 L-R;
#X obj 314 32 channel_mIn_1_mAux_4_sOut_5 CH4 AUX1 AUX2 AUX3 AUX4 G12 G34
G56 G78 L-R;
#X obj 418 32 channel_mIn_1_mAux_4_sOut_5 CH5 AUX1 AUX2 AUX3 AUX4 G12 G34
G56 G78 L-R;
#X obj 522 32 channel_mIn_1_mAux_4_sOut_5 CH6 AUX1 AUX2 AUX3 AUX4 G12 G34
G56 G78 L-R;
#X obj 626 32 channel_mIn_1_mAux_4_sOut_5 CH7 AUX1 AUX2 AUX3 AUX4 G12 G34
G56 G78 L-R;
#X obj 730 32 channel_mIn_1_mAux_4_sOut_5 CH8 AUX1 AUX2 AUX3 AUX4 G12 G34
G56 G78 L-R;
#X obj 834 32 channel_mIn_1_mOut_1 AUX1;
#X obj 938 32 channel_mIn_1_mOut_1 AUX2;
#X obj 1042 32 channel_mIn_1_mOut_1 AUX3;
#X obj 1146 32 channel_mIn_1_mOut_1 AUX4;
#X obj 1250 32 channel_sIn_1_sOut_1 G12;
#X obj 1354 32 channel_sIn_1_sOut_1 G34;
#X obj 1458 32 channel_sIn_1_sOut_1 G56;
#X obj 1562 32 channel_sIn_1_sOut_1 G78;
#X obj 1666 32 channel_sIn_1_sOut_1 L-R;
#X obj 246 443 playrec-control;
#X obj 369 443 setup-control;
#X obj 3 443 state_manager;
#X obj 34 535 loadbang;
#X msg 2 595 dir ../../presets \, name init \, load;
#X msg 114 537 print;
#X obj 12 534 bng 15 250 50 0 empty empty empty 17 7 0 10 -262144 -1
-1;
#X obj 34 559 delay 2000;
#X connect 30 0 34 0;
#X connect 31 0 29 0;
#X connect 32 0 29 0;
#X connect 33 0 31 0;
#X connect 34 0 31 0;
