#N canvas -4 0 1907 962 10;
#X declare -path ./lib;
#X declare -path ./lib/canales;
#X declare -path ./extra/multicatch;
#X declare -path ./extra/mmb;
#X declare -path ./extra/state_manager;
#X declare -path ./lib/rec-play;
#X declare -path ./extra/osclearn;
#X declare -path ../osclearn;
#X declare -lib mrpeach;
#X declare -lib pdcontainer;
#X declare -lib pdcontainer;
#X declare -lib pdcontainer;
#X declare -lib pdcontainer;
#X declare -lib pdcontainer;
#X declare -lib pdcontainer;
#X declare -lib pdcontainer;
#X declare -lib pdcontainer;
#X declare -lib pdcontainer;
#X declare -lib pdcontainer;
#X declare -lib pdcontainer;
#X declare -lib pdcontainer;
#X declare -lib pdcontainer;
#X declare -lib pdcontainer;
#X declare -lib pdcontainer;
#X declare -lib pdcontainer;
#X declare -lib pdcontainer;
#X declare -lib pdcontainer;
#X declare -lib pdcontainer;
#X declare -lib pdcontainer;
#X declare -lib pdcontainer;
#X declare -lib pdcontainer;
#X declare -lib pdcontainer;
#X declare -lib pdcontainer;
#X declare -lib pdcontainer;
#X declare -lib pdcontainer;
#X declare -lib pdcontainer;
#X declare -lib pdcontainer;
#X declare -lib pdcontainer;
#X declare -lib pdcontainer;
#X declare -lib pdcontainer;
#X declare -lib pdcontainer;
#X declare -lib pdcontainer;
#X declare -lib pdcontainer;
#X declare -lib pdcontainer;
#X declare -lib pdcontainer -lib tof;
#X declare -lib pdcontainer;
#X declare -lib pdcontainer;
#X declare -lib pdcontainer;
#X declare -lib pdcontainer;
#X declare -lib pdcontainer;
#X declare -lib pdcontainer;
#X declare -lib pdcontainer;
#X declare -lib pdcontainer;
#X declare -lib pdcontainer;
#X declare -lib pdcontainer;
#X declare -lib pdcontainer;
#X declare -lib pdcontainer;
#X declare -lib pdcontainer;
#X declare -lib pdcontainer;
#X declare -lib pdcontainer;
#X declare -lib pdcontainer;
#X declare -lib pdcontainer;
#X declare -lib pdcontainer;
#X declare -lib pdcontainer;
#X declare -lib pdcontainer;
#X declare -lib pdcontainer;
#X declare -lib pdcontainer;
#X declare -lib pdcontainer;
#X declare -lib pdcontainer;
#X declare -lib pdcontainer;
#X declare -lib pdcontainer;
#X declare -lib pdcontainer;
#X declare -lib pdcontainer;
#X declare -lib pdcontainer;
#X declare -lib pdcontainer;
#X declare -lib pdcontainer;
#X declare -lib pdcontainer;
#X declare -lib pdcontainer;
#X declare -lib pdcontainer;
#X declare -lib pdcontainer;
#X declare -lib pdcontainer;
#X declare -lib pdcontainer;
#X declare -lib pdcontainer;
#X declare -lib pdcontainer;
#X declare -lib pdcontainer;
#X declare -lib pdcontainer;
#X declare -lib pdcontainer;
#X declare -lib pdcontainer;
#X declare -lib pdcontainer;
#X declare -lib pdcontainer;
#X declare -lib pdcontainer;
#X declare -lib pdcontainer;
#X declare -lib pdcontainer;
#X declare -lib pdcontainer;
#X declare -lib pdcontainer;
#X declare -lib pdcontainer;
#X declare -lib pdcontainer;
#X declare -lib pdcontainer;
#X declare -lib pdcontainer;
#X declare -lib pdcontainer;
#X declare -lib pdcontainer;
#X declare -lib pdcontainer;
#X declare -lib pdcontainer;
#X declare -lib pdcontainer;
#X declare -lib pdcontainer;
#X declare -lib pdcontainer;
#X declare -lib pdcontainer;
#X declare -lib pdcontainer;
#X declare -lib pdcontainer;
#X declare -lib pdcontainer;
#X declare -lib pdcontainer;
#X declare -lib pdcontainer;
#X declare -lib pdcontainer;
#X declare -lib pdcontainer;
#X declare -lib pdcontainer;
#X declare -lib pdcontainer;
#X declare -lib pdcontainer;
#X declare -lib pdcontainer;
#X declare -lib pdcontainer;
#X declare -lib pdcontainer;
#X declare -lib pdcontainer;
#X declare -lib pdcontainer;
#X declare -lib pdcontainer;
#X declare -lib pdcontainer;
#X declare -lib pdcontainer;
#X declare -lib pdcontainer;
#X declare -lib pdcontainer;
#X declare -lib pdcontainer;
#X declare -lib pdcontainer;
#X declare -lib pdcontainer;
#X declare -lib pdcontainer;
#X declare -lib pdcontainer;
#X declare -lib pdcontainer;
#X declare -lib pdcontainer;
#X declare -lib pdcontainer;
#X declare -lib pdcontainer;
#X declare -lib pdcontainer;
#X declare -lib pdcontainer;
#X declare -lib pdcontainer;
#X declare -lib pdcontainer;
#X declare -lib pdcontainer;
#X declare -lib pdcontainer;
#X declare -lib pdcontainer;
#X declare -lib pdcontainer;
#X declare -lib pdcontainer;
#X declare -lib pdcontainer;
#X declare -lib pdcontainer;
#X declare -lib pdcontainer;
#X declare -lib pdcontainer;
#X declare -lib pdcontainer;
#X declare -lib pdcontainer;
#X declare -lib pdcontainer;
#X declare -lib pdcontainer;
#X declare -lib pdcontainer;
#X declare -lib pdcontainer;
#X declare -lib pdcontainer;
#X declare -lib pdcontainer;
#X declare -lib pdcontainer;
#X declare -lib pdcontainer;
#X declare -lib pdcontainer;
#X declare -lib pdcontainer;
#X declare -lib pdcontainer;
#X declare -lib pdcontainer;
#X declare -lib pdcontainer;
#X declare -lib pdcontainer;
#X declare -lib pdcontainer;
#X declare -lib pdcontainer;
#X declare -lib pdcontainer;
#X declare -lib pdcontainer;
#X declare -lib pdcontainer;
#X declare -lib pdcontainer;
#X declare -lib pdcontainer;
#X declare -lib pdcontainer;
#X declare -lib pdcontainer;
#X declare -lib pdcontainer;
#X declare -lib pdcontainer;
#X declare -lib pdcontainer;
#X declare -lib pdcontainer;
#X declare -lib pdcontainer;
#X declare -lib pdcontainer;
#X declare -lib pdcontainer;
#X declare -lib pdcontainer;
#X declare -lib pdcontainer;
#X declare -lib pdcontainer;
#X declare -lib pdcontainer;
#X obj 9 -22 path ./lib;
#X obj 9 -42 path ./lib/canales;
#X obj 137 -42 path ./extra/multicatch;
#X obj 137 -22 path ./extra/mmb;
#X obj 287 -42 path ./extra/state_manager;
#X obj 9 -2 path ./lib/rec-play;
#X obj 287 -23 path ./extra/osclearn;
#X obj 715 -29 setup_osc_send_receive;
#X obj 7 26 cnv 15 1515 850 empty empty empty 20 12 0 14 -125798 -66577
0;
#X obj 23 42 channel_mIn_1_mAux_4_sOut_5 CH1 AUX1 AUX2 AUX3 AUX4 G12
G34 G56 G78 L-R;
#X obj 714 284 channel_mIn_1_mOut_1 AUX1;
#X obj 1070 283 channel_sIn_1_sOut_1 G12;
#X obj 1365 40 playrec-control;
#X obj 716 40 setup-control;
#X obj 716 176 state_manager;
#X obj 999 155 loadbang;
#X msg 967 215 dir ../../presets \, name init \, load;
#X msg 1079 157 print;
#X obj 977 154 bng 15 250 50 0 empty empty empty 17 7 0 10 -262144
-1 -1;
#X obj 999 179 delay 2000;
#X obj 107 41 channel_mIn_1_mAux_4_sOut_5 CH2 AUX1 AUX2 AUX3 AUX4 G12
G34 G56 G78 L-R;
#X obj 191 41 channel_mIn_1_mAux_4_sOut_5 CH3 AUX1 AUX2 AUX3 AUX4 G12
G34 G56 G78 L-R;
#X obj 275 41 channel_mIn_1_mAux_4_sOut_5 CH4 AUX1 AUX2 AUX3 AUX4 G12
G34 G56 G78 L-R;
#X obj 359 41 channel_mIn_1_mAux_4_sOut_5 CH5 AUX1 AUX2 AUX3 AUX4 G12
G34 G56 G78 L-R;
#X obj 443 41 channel_mIn_1_mAux_4_sOut_5 CH6 AUX1 AUX2 AUX3 AUX4 G12
G34 G56 G78 L-R;
#X obj 527 41 channel_mIn_1_mAux_4_sOut_5 CH7 AUX1 AUX2 AUX3 AUX4 G12
G34 G56 G78 L-R;
#X obj 611 41 channel_mIn_1_mAux_4_sOut_5 CH8 AUX1 AUX2 AUX3 AUX4 G12
G34 G56 G78 L-R;
#X obj 1154 283 channel_sIn_1_sOut_1 G34;
#X obj 1238 283 channel_sIn_1_sOut_1 G56;
#X obj 1322 283 channel_sIn_1_sOut_1 G78;
#X obj 1426 283 channel_sIn_1_sOut_1 L-R;
#X obj 798 284 channel_mIn_1_mOut_1 AUX2;
#X obj 882 284 channel_mIn_1_mOut_1 AUX3;
#X obj 966 284 channel_mIn_1_mOut_1 AUX4;
#X connect 15 0 19 0;
#X connect 16 0 14 0;
#X connect 17 0 14 0;
#X connect 18 0 16 0;
#X connect 19 0 16 0;
