#N canvas 105 50 841 672 10;
#X obj 101 47 metrum 50 1;
#X obj 101 76 tabdump /\$1/spectrum;
#X obj 333 74 s /\$1/gui_spectrum;
#X obj 100 100 gui.eq7.mmb \$1;
#X obj 237 75 list prepend 0;
#X obj 425 330 list prepend 0;
#X obj 289 310 b;
#X obj 289 331 tabdump /\$1/eq_graph;
#X obj 521 329 s /\$1/gui_eq_graph;
#X obj 172 320 s /\$1/eq_params;
#X obj 579 37 r \$1-coeff.list;
#X obj 579 65 bng 15 250 50 0 empty empty empty 17 7 0 10 -262144 -1
-1;
#X connect 0 0 1 0;
#X connect 1 0 3 0;
#X connect 1 0 4 0;
#X connect 3 0 6 0;
#X connect 3 0 9 0;
#X connect 4 0 2 0;
#X connect 5 0 8 0;
#X connect 6 0 7 0;
#X connect 7 0 5 0;
#X connect 10 0 11 0;
#X coords 0 -1 1 1 653 193 2 100 100;
