#N canvas 78 221 841 672 10;
#X obj 101 47 metrum 50 1;
#X obj 101 76 tabdump /\$1/spectrum;
#X obj 333 74 s /\$1/gui_spectrum;
#X obj 100 100 gui.eq7.mmb \$1;
#X obj 237 75 list prepend 0;
#X obj 425 330 list prepend 0;
#X obj 289 310 b;
#X obj 289 331 tabdump /\$1/eq_graph;
#X obj 521 329 s /\$1/gui_eq_graph;
#X obj 933 107 r /\$1/eq_params;
#X obj 172 320 s /\$1/eq_params;
#X text 930 79 OSC Carlos;
#X obj 100 352 unpack s f;
#X obj 100 449 pack s s f;
#X obj 100 380 t b s;
#X msg 100 476 /\$1/\$2 \$3;
#X obj 100 509 s pack_osc;
#X obj 205 444 print xx;
#X obj 100 413 symbol \$1/eq_params;
#X obj 579 37 r \$1-coeff.list;
#X obj 579 65 bng 15 250 50 0 empty empty empty 17 7 0 10 -262144 -1
-1;
#X connect 0 0 1 0;
#X connect 1 0 3 0;
#X connect 1 0 4 0;
#X connect 3 0 6 0;
#X connect 3 0 10 0;
#X connect 3 0 12 0;
#X connect 4 0 2 0;
#X connect 5 0 8 0;
#X connect 6 0 7 0;
#X connect 7 0 5 0;
#X connect 12 0 14 0;
#X connect 12 1 13 2;
#X connect 13 0 15 0;
#X connect 14 0 18 0;
#X connect 14 1 13 1;
#X connect 15 0 16 0;
#X connect 18 0 13 0;
#X connect 19 0 20 0;
#X coords 0 -1 1 1 653 193 2 100 100;
