#N canvas 304 93 815 562 10;
#X obj 29 27 inlet~;
#X obj 89 27 inlet~;
#X obj 29 217 outlet~;
#X obj 89 217 outlet~;
#X obj 145 27 inlet;
#X text 184 27 -45 / 45;
#X obj 28 125 *~;
#X obj 88 125 *~;
#X obj 145 89 stereo_balance;
#X connect 0 0 6 0;
#X connect 1 0 7 0;
#X connect 4 0 8 0;
#X connect 6 0 2 0;
#X connect 7 0 3 0;
#X connect 8 0 6 1;
#X connect 8 1 7 1;
