#N canvas 344 244 450 300 10;
#X obj 89 41 inlet;
#X text 33 21 audio;
#X obj 33 41 inlet~;
#X obj 33 170 *~;
#X obj 33 196 outlet~;
#X text 33 210 audio;
#X text 90 22 MUTE;
#X obj 89 145 line~;
#X msg 116 117 20;
#X text 142 118 interpol-time ms;
#X obj 114 65 init 0;
#X obj 89 90 expr 1-$f1;
#X text 160 91 invert;
#X connect 0 0 11 0;
#X connect 2 0 3 0;
#X connect 3 0 4 0;
#X connect 7 0 3 1;
#X connect 8 0 7 1;
#X connect 10 0 11 0;
#X connect 11 0 7 0;
