#N canvas 0 0 719 300 10;
#X obj 109 141 multiplex~ 0 1 2;
#X obj 201 100 r~ /\$1/solo_APL_L;
#X obj 108 233 mthrow~ SOLO_L;
#X obj 20 69 nbx 5 14 -1e+037 1e+037 0 0 empty empty empty 0 -8 0 10
-262144 -1 -1 0 256;
#X obj 429 141 multiplex~ 0 1 2;
#X obj 340 69 nbx 5 14 -1e+037 1e+037 0 0 empty empty empty 0 -8 0
10 -262144 -1 -1 0 256;
#X obj 521 100 r~ /\$1/solo_APL_R;
#X obj 428 233 mthrow~ SOLO_R;
#X obj 201 169 r /\$1/solo;
#X obj 521 169 r /\$1/solo;
#X obj 108 200 process_solo_on~;
#X obj 428 200 process_solo_on~;
#X obj 110 58 r~ /\$1/solo_PFL_L;
#X obj 156 78 r~ /\$1/solo_AFL_L;
#X obj 430 58 r~ /\$1/solo_PFL_R;
#X obj 476 78 r~ /\$1/solo_AFL_R;
#X obj 69 32 r /solo/control;
#X obj 389 32 r /solo/control;
#X connect 0 0 10 0;
#X connect 1 0 0 2;
#X connect 3 0 0 0;
#X connect 4 0 11 0;
#X connect 5 0 4 0;
#X connect 6 0 4 2;
#X connect 8 0 10 1;
#X connect 9 0 11 1;
#X connect 10 0 2 0;
#X connect 11 0 7 0;
#X connect 12 0 0 0;
#X connect 13 0 0 1;
#X connect 14 0 4 0;
#X connect 15 0 4 1;
#X connect 16 0 0 0;
#X connect 16 0 3 0;
#X connect 17 0 4 0;
#X connect 17 0 5 0;
