#N canvas 1329 9 450 346 10;
#X obj 5 23 inlet~;
#X obj 5 245 outlet~;
#X obj 5 213 *~;
#X obj 70 79 sel 0 1;
#X obj 102 112 -1;
#X obj 70 112 1;
#X obj 70 23 inlet;
#X obj 89 52 init 0;
#X obj 70 189 line~;
#X msg 117 172 20;
#X text 143 173 interpol-time ms;
#X obj 117 147 loadbang;
#X connect 0 0 2 0;
#X connect 2 0 1 0;
#X connect 3 0 5 0;
#X connect 3 1 4 0;
#X connect 4 0 8 0;
#X connect 5 0 8 0;
#X connect 6 0 3 0;
#X connect 7 0 3 0;
#X connect 8 0 2 1;
#X connect 9 0 8 1;
#X connect 11 0 9 0;
