#N canvas 119 261 450 300 10;
#X obj 214 29 r /\$1/\$2/assign-bus;
#X obj 41 71 *~;
#X obj 121 71 *~;
#X obj 41 120 mthrow~ \$2_L;
#X obj 121 120 mthrow~ \$2_R;
#X obj 41 29 r~ \$1_L;
#X obj 121 29 r~ \$1_R;
#X obj 228 66 tgl 15 0 empty empty empty 17 7 0 10 -262144 -1 -1 1
1;
#X connect 0 0 2 1;
#X connect 0 0 1 1;
#X connect 0 0 7 0;
#X connect 1 0 3 0;
#X connect 2 0 4 0;
#X connect 5 0 1 0;
#X connect 6 0 2 0;
