#N canvas 628 184 652 300 10;
#X obj 99 131 multiplex~ 0 1 2;
#X obj 191 90 r~ /\$1/solo_APL_L;
#X obj 98 223 mthrow~ SOLO_L;
#X obj 10 59 nbx 5 14 -1e+037 1e+037 0 0 empty empty empty 0 -8 0 10
-262144 -1 -1 0 256;
#X obj 419 131 multiplex~ 0 1 2;
#X obj 330 59 nbx 5 14 -1e+037 1e+037 0 0 empty empty empty 0 -8 0
10 -262144 -1 -1 0 256;
#X obj 511 90 r~ /\$1/solo_APL_R;
#X obj 418 223 mthrow~ SOLO_R;
#X obj 59 22 r solo-control;
#X obj 379 22 r solo-control;
#X obj 100 48 r~ /\$1/solo_PFL;
#X obj 146 68 r~ /\$1/solo_AFL;
#X obj 420 48 r~ /\$1/solo_PFL;
#X obj 466 68 r~ /\$1/solo_AFL;
#X obj 191 159 r /\$1/solo;
#X obj 511 159 r /\$1/solo;
#X obj 98 190 process_solo_on~;
#X obj 418 190 process_solo_on~;
#X connect 0 0 16 0;
#X connect 1 0 0 2;
#X connect 3 0 0 0;
#X connect 4 0 17 0;
#X connect 5 0 4 0;
#X connect 6 0 4 2;
#X connect 8 0 0 0;
#X connect 8 0 3 0;
#X connect 9 0 4 0;
#X connect 9 0 5 0;
#X connect 10 0 0 0;
#X connect 11 0 0 1;
#X connect 12 0 4 0;
#X connect 13 0 4 1;
#X connect 14 0 16 1;
#X connect 15 0 17 1;
#X connect 16 0 2 0;
#X connect 17 0 7 0;
