#N canvas 997 236 362 507 10;
#N canvas 172 183 450 300 vu_signal 0;
#X obj 13 119 multiplex 0 1;
#X obj 108 119 nbx 5 14 -1e+37 1e+37 0 0 empty empty empty 0 -8 0 10
-262144 -1 -1 0 256;
#X obj 13 11 r /\$1/vu_pre;
#X obj 50 36 r /\$1/vu_post;
#X obj 13 154 s /\$1/vu_control;
#X obj 88 74 r /vu_control;
#X connect 0 0 4 0;
#X connect 2 0 0 0;
#X connect 3 0 0 1;
#X connect 5 0 0 2;
#X connect 5 0 1 0;
#X restore 227 104 pd vu_signal;
#X obj -25 40 path lib;
#X obj -28 86 mcatch~ \$2;
#X obj -27 477 mthrow~ \$3;
#N canvas 525 140 614 196 eq~ 0;
#X obj 20 18 inlet~;
#X obj 19 94 outlet~;
#X obj 82 18 r /\$1/eq_params;
#X obj 76 94 s~ /\$1/post_eq;
#X obj 172 93 s \$1-coeff.list;
#X obj 19 56 process_eq~;
#X connect 0 0 5 0;
#X connect 2 0 5 1;
#X connect 5 0 1 0;
#X connect 5 1 3 0;
#X connect 5 2 4 0;
#X restore -28 139 pd eq~;
#N canvas 810 233 450 292 fader~ 0;
#X obj -811 -202 inlet~;
#X obj -811 -135 outlet~;
#X obj -736 -202 r /\$1/fader;
#X obj -811 -170 process_gain~;
#X connect 0 0 3 0;
#X connect 2 0 3 1;
#X connect 3 0 1 0;
#X restore -27 283 pd fader~;
#N canvas 762 267 450 300 vu-pre~ 0;
#X obj 14 -38 inlet~;
#X obj 13 49 outlet~;
#X obj 13 -1 vu~;
#X obj 28 22 s /\$1/vu_pre;
#X connect 0 0 2 0;
#X connect 2 0 1 0;
#X connect 2 1 3 0;
#X restore -29 165 pd vu-pre~;
#N canvas 514 98 456 365 phase 0;
#X obj -5 13 inlet~;
#X obj -4 81 outlet~;
#X obj 71 13 r /\$1/phase;
#X obj -4 46 process_phase~;
#X connect 0 0 3 0;
#X connect 2 0 3 1;
#X connect 3 0 1 0;
#X restore -28 115 pd phase;
#N canvas 75 272 450 300 vu-post~ 0;
#X obj 14 -38 inlet~;
#X obj 12 53 outlet~;
#X obj 13 -1 vu~;
#X obj 28 22 s /\$1/vu_post;
#X connect 0 0 2 0;
#X connect 2 0 1 0;
#X connect 2 1 3 0;
#X restore -28 350 pd vu-post~;
#X text 97 11 \$1 nombre del canal;
#X text 97 21 \$2 in (etiqueta);
#X text 97 30 \$3 out (etiqueta);
#N canvas 416 346 450 300 mute~ 0;
#X obj -2 28 inlet~;
#X obj -3 111 outlet~;
#X obj 72 29 r /\$1/mute;
#X obj -3 70 process_mute~;
#X connect 0 0 3 0;
#X connect 2 0 3 1;
#X connect 3 0 1 0;
#X restore -28 254 pd mute~;
#N canvas 754 248 450 300 solo-APL_L 0;
#X obj 22 20 inlet~;
#X obj 23 83 outlet~;
#X obj 87 53 s~ /\$1/solo_APL_L;
#X connect 0 0 1 0;
#X connect 0 0 2 0;
#X restore -28 436 pd solo-APL_L;
#N canvas 754 248 450 300 solo-APL_R 0;
#X obj 32 30 inlet~;
#X obj 33 93 outlet~;
#X obj 97 63 s~ /\$1/solo_APL_R;
#X connect 0 0 1 0;
#X connect 0 0 2 0;
#X restore 72 435 pd solo-APL_R;
#X obj 227 46 inlet~;
#X obj 274 46 outlet~;
#X obj 226 13 cnv 15 100 25 empty empty \$1 20 12 0 14 -228856 -66577
0;
#N canvas 486 262 632 300 solo 0;
#X obj -7 19 process_solo_stos~ \$1;
#X restore 228 163 pd solo;
#N canvas 1979 193 450 300 solo-PFL-mtos 0;
#X obj 22 20 inlet~;
#X obj 23 83 outlet~;
#X obj 80 83 s~ /\$1/solo_PFL_L;
#X obj 193 83 s~ /\$1/solo_PFL_R;
#X obj 192 60 *~ 0.707;
#X obj 80 60 *~ 0.707;
#X connect 0 0 1 0;
#X connect 0 0 5 0;
#X connect 0 0 4 0;
#X connect 4 0 3 0;
#X connect 5 0 2 0;
#X restore -28 196 pd solo-PFL-mtos;
#N canvas 1869 203 450 300 solo-AFL-mtos 0;
#X obj 32 30 inlet~;
#X obj 33 93 outlet~;
#X obj 201 70 *~ 0.707;
#X obj 89 70 *~ 0.707;
#X obj 88 93 s~ /\$1/solo_AFL_L;
#X obj 202 93 s~ /\$1/solo_AFL_R;
#X connect 0 0 1 0;
#X connect 0 0 3 0;
#X connect 0 0 2 0;
#X connect 2 0 5 0;
#X connect 3 0 4 0;
#X restore -28 316 pd solo-AFL-mtos;
#X connect 2 0 7 0;
#X connect 4 0 6 0;
#X connect 5 0 20 0;
#X connect 6 0 19 0;
#X connect 7 0 4 0;
#X connect 8 0 13 0;
#X connect 8 0 14 0;
#X connect 12 0 5 0;
#X connect 13 0 3 0;
#X connect 19 0 12 0;
#X connect 20 0 8 0;
