#N canvas 788 119 942 818 10;
#X declare -lib pdcontainer;
#X declare -lib pdcontainer;
#X declare -lib pdcontainer;
#X declare -lib pdcontainer;
#X declare -lib pdcontainer;
#X declare -lib pdcontainer;
#X declare -lib pdcontainer;
#X declare -lib pdcontainer;
#X declare -lib pdcontainer;
#X declare -lib pdcontainer;
#X declare -lib pdcontainer;
#X declare -lib pdcontainer;
#X declare -lib pdcontainer;
#X declare -lib pdcontainer;
#X declare -lib pdcontainer;
#X obj 835 25 cnv 15 210 120 empty empty Canvas 20 12 0 14 -233017
-66577 0;
#X msg 852 87 label \$1;
#X obj 852 109 s canvas_set_\$0;
#X obj 852 63 r canvas_name_\$0;
#X obj 837 154 cnv 15 210 120 empty empty Ventana_Emergente 20 12 0
14 -233017 -66577 0;
#X msg 855 205 vis \$1;
#X obj 855 183 r \$0_editor;
#X obj 855 246 iem_send;
#X obj 613 27 cnv 15 210 190 empty empty State 20 12 0 14 -233017 -66577
0;
#X obj 620 81 nbx 5 14 -1e+037 1e+037 0 0 empty empty empty 0 -8 0
10 -262144 -1 -1 1 256;
#X obj 620 130 iem_receive;
#X obj 620 160 symbol;
#X obj 620 190 s canvas_name_\$0;
#X msg 620 103 set channel_1_send_1_\$1;
#X obj 620 59 sfruit/instance channel_1_send_1;
#X msg 900 225 set pd-editor\$1;
#X obj 482 27 cnv 15 120 100 empty empty Inicial 20 12 0 14 -233017
-66577 0;
#X obj 492 103 s canvas_name_\$0;
#X obj 492 78 symbol \$1;
#X obj 492 54 loadbang;
#X obj 940 205 symbol \$1;
#X obj 940 184 loadbang;
#X obj 100 100 cnv 15 80 820 empty empty empty 20 12 0 14 -12515 -66577
0;
#X text 119 73 CONTROL;
#X obj -28 459 s \$0_editor;
#X obj -41 222 r canvas_name_\$0;
#X obj 109 686 ui_fader \$1;
#X obj 103 563 ui_pan \$1;
#X obj 109 855 ui_mute \$1;
#X obj 109 621 ui_solo \$1;
#X obj 103 187 ui_player \$1;
#X obj 145 688 vu 10 160 empty empty -1 -8 0 10 -24967 -1 0 0;
#X obj 157 688 vu 10 160 empty empty -1 -8 0 10 -24967 -1 0 0;
#X obj 301 266 iem_receive /\$1/vuL_control;
#X obj 281 319 iem_receive /\$1/vuR_control;
#X obj 281 158 r canvas_name_\$0;
#X obj 281 183 unsymbol;
#X obj 281 208 list;
#X msg 281 293 set /\$1/vuR_control;
#X msg 301 240 set /\$1/vuL_control;
#X obj 103 215 ui_aux \$1 \$2;
#X obj 109 497 ui_editor;
#X text 335 184 dudoso;
#X obj 100 128 ui_graph \$1 gui_spectrum 256 0 1;
#X obj 106 329 ui_group \$1 \$6;
#X obj 109 432 ui_phase \$1;
#X obj 100 128 ui_graph \$1 gui_eq_graph 556 -1 1;
#X obj 103 243 ui_aux \$1 \$3;
#X obj 103 271 ui_aux \$1 \$4;
#X obj 103 299 ui_aux \$1 \$5;
#X obj 126 397 ui_group \$1 \$10;
#X obj 146 329 ui_group \$1 \$7;
#X obj 106 363 ui_group \$1 \$8;
#X obj 146 363 ui_group \$1 \$9;
#X obj 100 100 cnv 15 80 25 empty canvas_set_\$0 CH1 10 14 0 22 -1
-92704 0;
#X connect 1 0 2 0;
#X connect 3 0 1 0;
#X connect 5 0 7 0;
#X connect 6 0 5 0;
#X connect 9 0 13 0;
#X connect 10 0 11 0;
#X connect 11 0 12 0;
#X connect 13 0 10 0;
#X connect 14 0 9 0;
#X connect 15 0 7 1;
#X connect 18 0 17 0;
#X connect 19 0 18 0;
#X connect 20 0 15 0;
#X connect 21 0 20 0;
#X connect 25 0 27 0;
#X connect 25 0 40 0;
#X connect 25 0 29 0;
#X connect 25 0 44 0;
#X connect 25 0 45 0;
#X connect 25 0 46 0;
#X connect 25 0 47 0;
#X connect 25 0 48 0;
#X connect 25 0 49 0;
#X connect 25 0 50 0;
#X connect 25 0 51 0;
#X connect 25 0 52 0;
#X connect 25 0 53 0;
#X connect 33 0 31 0;
#X connect 34 0 32 0;
#X connect 35 0 36 0;
#X connect 36 0 37 0;
#X connect 37 0 39 0;
#X connect 37 0 38 0;
#X connect 38 0 34 0;
#X connect 39 0 33 0;
#X connect 41 0 24 0;
#X coords 0 -1 1 1 80 820 2 100 100;
