#N canvas 532 133 398 516 10;
#X obj 15 40 path lib;
#N canvas 2408 260 614 196 eq~ 0;
#X obj 20 18 inlet~;
#X obj 19 94 outlet~;
#X obj 82 18 r /\$1/eq_params;
#X obj 178 95 s \$1-coeff.list;
#X obj 19 56 process_eq~;
#X obj 76 94 s~ /\$1/post_eqL;
#X connect 0 0 4 0;
#X connect 2 0 4 1;
#X connect 4 0 1 0;
#X connect 4 1 5 0;
#X connect 4 2 3 0;
#X restore 12 139 pd eq~;
#N canvas 810 233 450 292 fader~ 0;
#X obj -811 -202 inlet~;
#X obj -811 -135 outlet~;
#X obj -736 -202 r /\$1/fader;
#X obj -811 -170 process_gain~;
#X connect 0 0 3 0;
#X connect 2 0 3 1;
#X connect 3 0 1 0;
#X restore 13 283 pd fader~;
#N canvas 514 98 456 365 phase 0;
#X obj -5 13 inlet~;
#X obj -4 81 outlet~;
#X obj 71 13 r /\$1/phase;
#X obj -4 46 process_phase~;
#X connect 0 0 3 0;
#X connect 2 0 3 1;
#X connect 3 0 1 0;
#X restore 12 115 pd phase;
#X text 137 11 \$1 nombre del canal;
#X text 137 21 \$2 in (etiqueta);
#X text 137 30 \$3 out (etiqueta);
#N canvas 416 346 450 300 mute~ 0;
#X obj -2 28 inlet~;
#X obj -3 111 outlet~;
#X obj 72 29 r /\$1/mute;
#X obj -3 70 process_mute~;
#X connect 0 0 3 0;
#X connect 2 0 3 1;
#X connect 3 0 1 0;
#X restore 12 254 pd mute~;
#N canvas 754 248 450 300 solo-APL_L 0;
#X obj 22 20 inlet~;
#X obj 23 83 outlet~;
#X obj 87 53 s~ /\$1/solo_APL_L;
#X connect 0 0 1 0;
#X connect 0 0 2 0;
#X restore 12 436 pd solo-APL_L;
#N canvas 754 248 450 300 solo-APL_R 0;
#X obj 32 30 inlet~;
#X obj 33 93 outlet~;
#X obj 97 63 s~ /\$1/solo_APL_R;
#X connect 0 0 1 0;
#X connect 0 0 2 0;
#X restore 112 435 pd solo-APL_R;
#X obj 276 49 inlet~;
#X obj 321 49 outlet~;
#X obj 276 18 cnv 15 100 25 empty empty \$1 20 12 0 14 -228856 -66577
0;
#N canvas 486 262 360 92 solo 0;
#X obj -4 13 process_solo_stos~ \$1;
#X restore 278 168 pd solo;
#X obj 12 86 mcatch~ \$2_L;
#N canvas 2467 497 614 196 eq~ 0;
#X obj 20 18 inlet~;
#X obj 19 94 outlet~;
#X obj 82 18 r /\$1/eq_params;
#X obj 172 93 s \$1-coeff.list;
#X obj 19 56 process_eq~;
#X obj 76 94 s~ /\$1/post_eqR;
#X connect 0 0 4 0;
#X connect 2 0 4 1;
#X connect 4 0 1 0;
#X connect 4 1 5 0;
#X connect 4 2 3 0;
#X restore 112 139 pd eq~;
#N canvas 810 233 450 292 fader~ 0;
#X obj -811 -202 inlet~;
#X obj -811 -135 outlet~;
#X obj -736 -202 r /\$1/fader;
#X obj -811 -170 process_gain~;
#X connect 0 0 3 0;
#X connect 2 0 3 1;
#X connect 3 0 1 0;
#X restore 113 283 pd fader~;
#N canvas 514 98 456 365 phase 0;
#X obj -5 13 inlet~;
#X obj -4 81 outlet~;
#X obj 71 13 r /\$1/phase;
#X obj -4 46 process_phase~;
#X connect 0 0 3 0;
#X connect 2 0 3 1;
#X connect 3 0 1 0;
#X restore 112 115 pd phase;
#N canvas 416 346 450 300 mute~ 0;
#X obj -2 28 inlet~;
#X obj -3 111 outlet~;
#X obj 72 29 r /\$1/mute;
#X obj -3 70 process_mute~;
#X connect 0 0 3 0;
#X connect 2 0 3 1;
#X connect 3 0 1 0;
#X restore 112 254 pd mute~;
#X obj 13 477 mthrow~ \$3_L;
#X obj 113 477 mthrow~ \$3_R;
#X obj 112 86 mcatch~ \$2_R;
#N canvas 644 261 450 300 pan-stos~ 0;
#X obj -77 18 inlet~;
#X obj -77 107 outlet~;
#X obj 23 107 outlet~;
#X obj -27 18 inlet~;
#X obj 22 18 r /\$1/pan;
#X obj -77 63 process_pan_stos~;
#X connect 0 0 5 0;
#X connect 3 0 5 1;
#X connect 4 0 5 2;
#X connect 5 0 1 0;
#X connect 5 1 2 0;
#X restore 12 356 pd pan-stos~;
#N canvas 925 392 450 300 vu_signal 0;
#X obj 13 119 multiplex 0 1;
#X obj 108 119 nbx 5 14 -1e+37 1e+37 0 0 empty empty empty 0 -8 0 10
-262144 -1 -1 0 256;
#X obj 215 117 multiplex 0 1;
#X obj 252 37 r /\$1/vuR_post;
#X obj 215 155 s /\$1/vuR_control;
#X obj 13 155 s /\$1/vuL_control;
#X obj 50 36 r /\$1/vuL_post;
#X obj 13 11 r /\$1/vuL_pre;
#X obj 215 8 r /\$1/vuR_pre;
#X obj 88 74 r /vu_control;
#X connect 0 0 5 0;
#X connect 2 0 4 0;
#X connect 3 0 2 1;
#X connect 6 0 0 1;
#X connect 7 0 0 0;
#X connect 8 0 2 0;
#X connect 9 0 0 2;
#X connect 9 0 1 0;
#X connect 9 0 2 2;
#X restore 277 109 pd vu_signal;
#N canvas 2515 325 450 300 vuL-pre~ 0;
#X obj 14 -38 inlet~;
#X obj 13 49 outlet~;
#X obj 13 -1 vu~;
#X obj 28 22 s /\$1/vuL_pre;
#X connect 0 0 2 0;
#X connect 2 0 1 0;
#X connect 2 1 3 0;
#X restore 11 165 pd vuL-pre~;
#N canvas 762 267 450 300 vuR-pre~ 0;
#X obj 14 -38 inlet~;
#X obj 13 49 outlet~;
#X obj 13 -1 vu~;
#X obj 28 22 s /\$1/vuR_pre;
#X connect 0 0 2 0;
#X connect 2 0 1 0;
#X connect 2 1 3 0;
#X restore 111 165 pd vuR-pre~;
#N canvas 553 289 450 300 solo-PFL_L 0;
#X obj 22 20 inlet~;
#X obj 23 83 outlet~;
#X obj 87 53 s~ /\$1/solo_PFL_L;
#X connect 0 0 1 0;
#X connect 0 0 2 0;
#X restore 12 196 pd solo-PFL_L;
#N canvas 553 289 450 300 solo-PFL_R 0;
#X obj 22 20 inlet~;
#X obj 23 83 outlet~;
#X obj 87 53 s~ /\$1/solo_PFL_R;
#X connect 0 0 1 0;
#X connect 0 0 2 0;
#X restore 112 196 pd solo-PFL_R;
#N canvas 532 332 450 300 solo-AFL_L 0;
#X obj 32 30 inlet~;
#X obj 33 93 outlet~;
#X obj 96 63 s~ /\$1/solo_AFL_L;
#X connect 0 0 1 0;
#X connect 0 0 2 0;
#X restore 12 316 pd solo-AFL_L;
#N canvas 532 332 450 300 solo-AFL_R 0;
#X obj 32 30 inlet~;
#X obj 33 93 outlet~;
#X obj 96 63 s~ /\$1/solo_AFL_R;
#X connect 0 0 1 0;
#X connect 0 0 2 0;
#X restore 112 316 pd solo-AFL_R;
#N canvas 75 272 450 300 vuL-post~ 0;
#X obj 14 -38 inlet~;
#X obj 12 53 outlet~;
#X obj 13 -1 vu~;
#X obj 28 22 s /\$1/vuL_post;
#X connect 0 0 2 0;
#X connect 2 0 1 0;
#X connect 2 1 3 0;
#X restore 12 400 pd vuL-post~;
#N canvas 75 272 450 300 vuR-post~ 0;
#X obj 14 -38 inlet~;
#X obj 12 53 outlet~;
#X obj 13 -1 vu~;
#X obj 28 22 s /\$1/vuR_post;
#X connect 0 0 2 0;
#X connect 2 0 1 0;
#X connect 2 1 3 0;
#X restore 112 400 pd vuR-post~;
#X connect 1 0 24 0;
#X connect 2 0 28 0;
#X connect 3 0 1 0;
#X connect 7 0 2 0;
#X connect 8 0 19 0;
#X connect 9 0 20 0;
#X connect 14 0 3 0;
#X connect 15 0 25 0;
#X connect 16 0 29 0;
#X connect 17 0 15 0;
#X connect 18 0 16 0;
#X connect 21 0 17 0;
#X connect 22 0 30 0;
#X connect 22 1 31 0;
#X connect 24 0 26 0;
#X connect 25 0 27 0;
#X connect 26 0 7 0;
#X connect 27 0 18 0;
#X connect 28 0 22 0;
#X connect 29 0 22 1;
#X connect 30 0 8 0;
#X connect 31 0 9 0;
