#N canvas 251 93 591 530 10;
#N canvas 441 389 614 196 eq~ 0;
#X obj 20 18 inlet~;
#X obj 19 94 outlet~;
#X obj 82 18 r /\$1/eq_params;
#X obj 76 94 s~ /\$1/post_eq;
#X obj 172 93 s \$1-coeff.list;
#X obj 19 56 process_eq~;
#X connect 0 0 5 0;
#X connect 2 0 5 1;
#X connect 5 0 1 0;
#X connect 5 1 3 0;
#X connect 5 2 4 0;
#X restore 7 99 pd eq~;
#N canvas 810 233 450 292 fader~ 0;
#X obj -811 -202 inlet~;
#X obj -811 -135 outlet~;
#X obj -736 -202 r /\$1/fader;
#X obj -811 -170 process_gain~;
#X connect 0 0 3 0;
#X connect 2 0 3 1;
#X connect 3 0 1 0;
#X restore 5 243 pd fader~;
#N canvas 75 272 450 300 vuL-post~ 0;
#X obj 14 -38 inlet~;
#X obj 12 53 outlet~;
#X obj 28 22 s /\$1/vuL_post;
#X obj 13 -1 vu~;
#X connect 0 0 3 0;
#X connect 3 0 1 0;
#X connect 3 1 2 0;
#X restore 5 385 pd vuL-post~;
#N canvas 73 277 450 300 vuR-post~ 0;
#X obj 14 -38 inlet~;
#X obj 12 53 outlet~;
#X obj 28 22 s /\$1/vuR_post;
#X obj 13 -1 vu~;
#X connect 0 0 3 0;
#X connect 3 0 1 0;
#X connect 3 1 2 0;
#X restore 95 385 pd vuR-post~;
#N canvas 725 343 450 300 vu_signal 0;
#X obj 13 119 multiplex 0 1;
#X obj 108 119 nbx 5 14 -1e+037 1e+037 0 0 empty empty empty 0 -8 0
10 -262144 -1 -1 0 256;
#X obj 13 11 r /\$1/vu_pre;
#X obj 215 117 multiplex 0 1;
#X obj 252 37 r /\$1/vuR_post;
#X obj 215 155 s /\$1/vuR_control;
#X obj 13 155 s /\$1/vuL_control;
#X obj 215 8 r /\$1/vu_pre;
#X obj 50 36 r /\$1/vuL_post;
#X obj 88 74 r /vu_control;
#X connect 0 0 6 0;
#X connect 2 0 0 0;
#X connect 3 0 5 0;
#X connect 4 0 3 1;
#X connect 7 0 3 0;
#X connect 8 0 0 1;
#X connect 9 0 0 2;
#X connect 9 0 1 0;
#X connect 9 0 3 2;
#X restore 319 90 pd vu_signal;
#X obj 8 10 path lib;
#N canvas 762 267 450 300 vu-pre~ 0;
#X obj 14 -38 inlet~;
#X obj 13 49 outlet~;
#X obj 13 -1 vu~;
#X obj 28 22 s /\$1/vu_pre;
#X connect 0 0 2 0;
#X connect 2 0 1 0;
#X connect 2 1 3 0;
#X restore 6 125 pd vu-pre~;
#N canvas 647 322 450 298 bus-pre~ 0;
#X obj 12 10 inlet~;
#X obj 13 73 outlet~;
#X obj 77 43 s~ /\$1/bus_pre;
#X connect 0 0 1 0;
#X connect 0 0 2 0;
#X restore 5 214 pd bus-pre~;
#N canvas 476 257 450 300 bus_post~ 0;
#X obj 19 16 inlet~;
#X obj 20 49 outlet~;
#X obj 83 47 s~ /\$1/bus_post;
#X connect 0 0 1 0;
#X connect 0 0 2 0;
#X restore 5 309 pd bus_post~;
#N canvas 514 98 456 365 phase 0;
#X obj -5 13 inlet~;
#X obj -4 81 outlet~;
#X obj 71 13 r /\$1/phase;
#X obj -4 46 process_phase~;
#X connect 0 0 3 0;
#X connect 2 0 3 1;
#X connect 3 0 1 0;
#X restore 7 75 pd phase;
#X obj 7 46 mcatch~ \$2;
#N canvas 207 290 340 150 Auxs 0;
#X obj 34 28 process_mAux~ \$1 \$3;
#X obj 35 48 process_mAux~ \$1 \$4;
#X obj 35 68 process_mAux~ \$1 \$5;
#X obj 35 87 process_mAux~ \$1 \$6;
#X restore 319 113 pd Auxs;
#X obj 317 40 inlet~;
#X obj 367 40 outlet~;
#N canvas 650 384 450 223 groups 0;
#X obj 344 25 s /\$1/\$7/assign-bus;
#X obj 319 27 tgl 15 0 empty empty empty 17 7 0 10 -262144 -1 -1 0
1;
#X obj 319 47 tgl 15 0 empty empty empty 17 7 0 10 -262144 -1 -1 0
1;
#X obj 319 67 tgl 15 0 empty empty empty 17 7 0 10 -262144 -1 -1 0
1;
#X obj 319 87 tgl 15 0 empty empty empty 17 7 0 10 -262144 -1 -1 0
1;
#X obj 319 107 tgl 15 0 empty empty empty 17 7 0 10 -262144 -1 -1 0
1;
#X obj 344 45 s /\$1/\$8/assign-bus;
#X obj 344 65 s /\$1/\$9/assign-bus;
#X obj 344 85 s /\$1/\$10/assign-bus;
#X obj 344 105 s /\$1/\$11/assign-bus;
#X obj 25 105 process_sOut~ \$1 \$11;
#X obj 25 25 process_sOut~ \$1 \$7;
#X obj 25 45 process_sOut~ \$1 \$8;
#X obj 25 65 process_sOut~ \$1 \$9;
#X obj 25 85 process_sOut~ \$1 \$10;
#X obj 299 27 tgl 15 0 empty empty empty 17 7 0 10 -262144 -1 -1 0
1;
#X obj 299 47 tgl 15 0 empty empty empty 17 7 0 10 -262144 -1 -1 0
1;
#X obj 299 67 tgl 15 0 empty empty empty 17 7 0 10 -262144 -1 -1 0
1;
#X obj 299 87 tgl 15 0 empty empty empty 17 7 0 10 -262144 -1 -1 0
1;
#X obj 299 107 tgl 15 0 empty empty empty 17 7 0 10 -262144 -1 -1 1
1;
#X obj 170 25 r /\$1/\$7/assign-bus;
#X obj 170 45 r /\$1/\$8/assign-bus;
#X obj 170 65 r /\$1/\$9/assign-bus;
#X obj 170 85 r /\$1/\$10/assign-bus;
#X obj 170 105 r /\$1/\$11/assign-bus;
#X connect 1 0 0 0;
#X connect 2 0 6 0;
#X connect 3 0 7 0;
#X connect 4 0 8 0;
#X connect 5 0 9 0;
#X connect 20 0 15 0;
#X connect 21 0 16 0;
#X connect 22 0 17 0;
#X connect 23 0 18 0;
#X connect 24 0 19 0;
#X restore 319 136 pd groups;
#X text 119 7 \$1 nombre del canal;
#X text 119 17 \$2 in mono (etiqueta);
#X text 119 25 \$3 bus aux mono 1 (etiqueta);
#X text 119 34 \$4 bus aux mono 2 (etiqueta);
#X text 119 43 \$5 bus aux mono 3 (etiqueta);
#X text 119 52 \$6 bus aux mono 4 (etiqueta);
#X text 119 62 \$7 group stereo 12 (etiqueta);
#X text 119 71 \$8 group stereo 34 (etiqueta);
#X text 119 80 \$9 group stereo 56 (etiqueta);
#X text 119 89 \$10 group stereo 78 (etiqueta);
#X text 119 98 \$11 group stereo LR (etiqueta);
#X obj 318 9 cnv 15 100 25 empty empty \$1 20 12 0 14 -228856 -66577
0;
#X obj 5 455 s~ \$1_L;
#X obj 95 455 s~ \$1_R;
#N canvas 754 248 450 300 solo-APL_L 0;
#X obj 22 20 inlet~;
#X obj 23 83 outlet~;
#X obj 87 53 s~ /\$1/solo_APL_L;
#X connect 0 0 1 0;
#X connect 0 0 2 0;
#X restore 5 415 pd solo-APL_L;
#N canvas 754 248 450 300 solo-APL_R 0;
#X obj 32 30 inlet~;
#X obj 33 93 outlet~;
#X obj 97 63 s~ /\$1/solo_APL_R;
#X connect 0 0 1 0;
#X connect 0 0 2 0;
#X restore 95 415 pd solo-APL_R;
#N canvas 406 230 632 258 solo 0;
#X obj -30 26 process_solo_stos~ \$1;
#X restore 320 159 pd solo;
#N canvas 416 346 450 300 mute~ 0;
#X obj -2 28 inlet~;
#X obj -3 111 outlet~;
#X obj 72 29 r /\$1/mute;
#X obj -3 70 process_mute~;
#X connect 0 0 3 0;
#X connect 2 0 3 1;
#X connect 3 0 1 0;
#X restore 6 184 pd mute~;
#N canvas 642 294 265 132 pan-mtos~ 0;
#X obj -76 38 inlet~;
#X obj -76 114 outlet~;
#X obj 23 114 outlet~;
#X obj 23 38 r /\$1/pan;
#X obj -76 76 process_pan_mtos~;
#X connect 0 0 4 0;
#X connect 3 0 4 1;
#X connect 4 0 1 0;
#X connect 4 1 2 0;
#X restore 4 349 pd pan-mtos~;
#N canvas 1652 316 450 300 solo-PFL-mtos 0;
#X obj 22 20 inlet~;
#X obj 23 93 outlet~;
#X obj 80 93 s~ /\$1/solo_PFL_L;
#X obj 193 93 s~ /\$1/solo_PFL_R;
#X obj 192 70 *~ 0.707;
#X obj 80 70 *~ 0.707;
#X connect 0 0 1 0;
#X connect 0 0 4 0;
#X connect 0 0 5 0;
#X connect 4 0 3 0;
#X connect 5 0 2 0;
#X restore 5 156 pd solo-PFL-mtos;
#N canvas 1860 331 450 300 solo-AFL-mtos 0;
#X obj 32 30 inlet~;
#X obj 33 93 outlet~;
#X obj 203 70 *~ 0.707;
#X obj 91 70 *~ 0.707;
#X obj 204 93 s~ /\$1/solo_AFL_R;
#X obj 91 93 s~ /\$1/solo_AFL_L;
#X connect 0 0 1 0;
#X connect 0 0 3 0;
#X connect 0 0 2 0;
#X connect 2 0 4 0;
#X connect 3 0 5 0;
#X restore 5 276 pd solo-AFL-mtos;
#X connect 0 0 6 0;
#X connect 1 0 35 0;
#X connect 2 0 29 0;
#X connect 3 0 30 0;
#X connect 6 0 34 0;
#X connect 7 0 1 0;
#X connect 8 0 33 0;
#X connect 9 0 0 0;
#X connect 10 0 9 0;
#X connect 29 0 27 0;
#X connect 30 0 28 0;
#X connect 32 0 7 0;
#X connect 33 0 2 0;
#X connect 33 1 3 0;
#X connect 34 0 32 0;
#X connect 35 0 8 0;
