#N canvas 1 82 450 300 10;
#X obj 25 50 path lib;
#N canvas 810 233 450 292 fader~ 0;
#X obj -811 -202 inlet~;
#X obj -811 -135 outlet~;
#X obj -736 -202 r /\$1/fader;
#X obj -811 -170 process_gain~;
#X connect 0 0 3 0;
#X connect 2 0 3 1;
#X connect 3 0 1 0;
#X restore 23 133 pd fader~;
#N canvas 810 233 450 292 fader~ 0;
#X obj -811 -202 inlet~;
#X obj -811 -135 outlet~;
#X obj -736 -202 r /\$1/fader;
#X obj -811 -170 process_gain~;
#X connect 0 0 3 0;
#X connect 2 0 3 1;
#X connect 3 0 1 0;
#X restore 123 133 pd fader~;
#N canvas 75 272 450 300 vuL-post~ 0;
#X obj 14 -38 inlet~;
#X obj 13 53 outlet~;
#X obj 13 -1 vu~;
#X obj 28 22 s /\$1/vuL_post;
#X connect 0 0 2 0;
#X connect 2 0 1 0;
#X connect 2 1 3 0;
#X restore 22 170 pd vuL-post~;
#N canvas 75 272 450 300 vuR-post~ 0;
#X obj 14 -38 inlet~;
#X obj 13 53 outlet~;
#X obj 13 -1 vu~;
#X obj 28 22 s /\$1/vuR_post;
#X connect 0 0 2 0;
#X connect 2 0 1 0;
#X connect 2 1 3 0;
#X restore 122 170 pd vuR-post~;
#X obj 22 201 outlet~;
#X obj 122 201 outlet~;
#X text 233 25 \$1 Nombre de canal;
#X text 233 35 \$2 in (etiqueta);
#X obj 22 96 mcatch~ \$2_L;
#X obj 123 96 mcatch~ \$2_R;
#X connect 1 0 3 0;
#X connect 2 0 4 0;
#X connect 3 0 5 0;
#X connect 4 0 6 0;
#X connect 9 0 1 0;
#X connect 10 0 2 0;
