#N canvas 215 183 1028 680 10;
#X declare -lib pdcontainer;
#X declare -lib pdcontainer;
#X declare -lib pdcontainer;
#X declare -lib pdcontainer;
#X declare -lib pdcontainer;
#X declare -lib pdcontainer;
#X declare -lib pdcontainer;
#X obj 100 30 r canvas_name_\$0;
#X obj 516 100 ui_setup_vu;
#X obj 618 100 ui_setup_solo_control;
#X obj 100 100 ui_aux_control AUX1;
#X obj 204 100 ui_aux_control AUX2;
#X obj 308 100 ui_aux_control AUX3;
#X obj 412 100 ui_aux_control AUX4;
#X connect 0 0 1 0;
#X connect 0 0 2 0;
#X connect 0 0 3 0;
#X connect 0 0 4 0;
#X connect 0 0 5 0;
#X connect 0 0 6 0;
#X connect 0 0 2 1;
#X coords 0 -1 1 1 625 82 1 100 100;
