#N canvas 598 317 498 220 10;
#X obj 293 -1 packOSC;
#X obj 110 -2 loadbang;
#X obj 110 -43 path ../osclearn;
#X obj 293 -41 r pack_osc;
#X obj 101 101 osclearn_receiver;
#X obj 293 48 udpsend;
#X obj 90 7 bng 15 250 50 0 empty empty empty 17 7 0 10 -262144 -1
-1;
#X msg 208 -1 disconnect;
#X msg 110 44 connect 127.0.0.1 9950;
#X obj 99 143 state_osc_receiver;
#X obj 358 -2 print SEND OSC;
#X obj 293 23 spigot;
#X obj 367 24 tgl 15 0 empty empty empty 17 7 0 10 -262144 -1 -1 1
1;
#X connect 0 0 11 0;
#X connect 1 0 8 0;
#X connect 3 0 0 0;
#X connect 5 0 12 0;
#X connect 6 0 8 0;
#X connect 7 0 5 0;
#X connect 8 0 5 0;
#X connect 11 0 5 0;
#X connect 12 0 11 1;
#X coords 0 -1 1 1 332 17 1 100 100;
