#N canvas 443 547 450 300 10;
#X declare -lib pdcontainer;
#X declare -lib pdcontainer;
#X obj 20 67 r~ /\$1/post_eqL;
#X obj 34 90 r~ /\$1/post_eqR;
#X obj 20 122 +~;
#X obj 114 245 r \$0_label;
#X obj 24 296 state_io_set /\$1/eq_plot;
#X obj 63 13 iem_receive /\$1/eq_plot;
#X obj 24 271 state_io_set /\$1/post_eq;
#X obj 19 194 table /\$1/spectrum;
#N canvas 849 213 518 416 plot 0;
#X msg 141 273 plot \$1;
#X obj 141 314 outlet;
#X obj 114 245 t f f;
#X obj 44 283 sel 0;
#X msg 44 309 const 0;
#X obj 44 337 s /\$1/spectrum;
#X obj 114 192 r \$1-analyze.active;
#X obj 114 218 == 1;
#X connect 0 0 1 0;
#X connect 2 0 3 0;
#X connect 2 1 0 0;
#X connect 3 0 4 0;
#X connect 4 0 5 0;
#X connect 6 0 7 0;
#X connect 7 0 2 0;
#X restore 182 57 pd plot;
#X obj 258 -12 loadbang;
#X obj 19 165 spectrum.mmb~ /\$1/spectrum;
#X msg 363 129 resize 256;
#X obj 363 156 s /\$1/spectrum;
#X obj 258 10 t b b;
#X msg 258 34 logfreq 1 \, dbrange -60 0 \, plot 1;
#X obj 19 214 table /\$1/eq_graph;
#X obj 461 155 s /\$1/eq_graph;
#X msg 462 127 resize 556;
#X connect 0 0 2 0;
#X connect 1 0 2 1;
#X connect 2 0 10 0;
#X connect 3 0 4 1;
#X connect 3 0 6 1;
#X connect 5 0 10 1;
#X connect 8 0 10 1;
#X connect 9 0 13 0;
#X connect 11 0 12 0;
#X connect 13 0 14 0;
#X connect 13 1 11 0;
#X connect 13 1 17 0;
#X connect 14 0 10 1;
#X connect 17 0 16 0;
