#N canvas 502 335 402 211 10;
#X obj 96 -4 r unpacked_osc;
#X obj 96 56 unpack s f;
#X obj 96 84 t b a;
#X obj 96 158 s;
#X obj 96 26 t a a;
#X obj 169 59 list split 1;
#X obj 96 123 list;
#X obj 191 173 print receiverosc;
#X obj 190 146 print receiveA;
#X connect 0 0 4 0;
#X connect 1 0 2 0;
#X connect 2 0 6 0;
#X connect 2 1 3 1;
#X connect 2 1 8 0;
#X connect 4 0 1 0;
#X connect 4 1 5 0;
#X connect 5 1 6 1;
#X connect 6 0 3 0;
#X connect 6 0 7 0;
