#N canvas 339 82 765 465 10;
#X obj 385 288 outlet;
#X obj 202 66 inlet;
#X obj 385 164 iem_receive;
#X msg 202 223 add \$1;
#X obj 202 170 t b a;
#X obj 202 252 h_map global_space;
#X obj 202 197 symbol \$1;
#X msg 385 141 set \$1;
#X obj 385 80 symbol \$1;
#X obj 350 -34 inlet label;
#X obj 385 34 initbang;
#X obj 481 287 s \$0_save_value;
#X msg 8 182 namespace \$1;
#X obj 350 -5 route label namespace;
#X obj 479 53 purepd/symbol_argument \$2 global_space;
#X obj 568 106 s \$0_namespace;
#X obj 8 158 r \$0_namespace;
#X obj 479 165 iem_receive;
#X obj 479 77 symbol;
#X obj 479 110 pack s s;
#X obj 436 109 t b a;
#X obj 385 214 t a;
#X obj 311 192 iem_send;
#X obj 312 164 iem_send;
#X msg 479 141 set /\$1\$2;
#X obj 385 249 prepend set;
#X obj 202 111 spigot;
#X obj 272 90 loadbang;
#X obj 272 110 1;
#X obj 235 64 r state_save_toggle;
#X obj 99 82 r \$0_save_value;
#X obj 86 381 s pack_osc;
#X obj 125 330 symbol \$1;
#X obj 86 353 prepend;
#X obj 125 306 initbang;
#X connect 1 0 22 0;
#X connect 1 0 26 0;
#X connect 1 0 23 0;
#X connect 1 0 33 0;
#X connect 2 0 21 0;
#X connect 3 0 5 0;
#X connect 4 0 6 0;
#X connect 4 1 5 1;
#X connect 6 0 3 0;
#X connect 7 0 2 0;
#X connect 7 0 23 1;
#X connect 8 0 6 1;
#X connect 8 0 7 0;
#X connect 8 0 20 0;
#X connect 9 0 13 0;
#X connect 10 0 8 0;
#X connect 10 0 14 0;
#X connect 12 0 5 0;
#X connect 13 0 8 0;
#X connect 13 1 18 0;
#X connect 14 0 18 0;
#X connect 16 0 12 0;
#X connect 17 0 21 0;
#X connect 18 0 15 0;
#X connect 18 0 19 0;
#X connect 19 0 24 0;
#X connect 20 0 19 0;
#X connect 20 1 19 1;
#X connect 21 0 25 0;
#X connect 24 0 17 0;
#X connect 24 0 22 1;
#X connect 25 0 0 0;
#X connect 26 0 4 0;
#X connect 27 0 28 0;
#X connect 28 0 26 1;
#X connect 29 0 26 1;
#X connect 32 0 33 1;
#X connect 33 0 31 0;
#X connect 34 0 32 0;
