#N canvas 1 82 1345 661 10;
#X msg 941 163 print;
#X obj 412 740 s;
#X msg 547 467 clear;
#X obj 941 190 s \$0_multimap_1;
#X msg 501 287 saveXML \$1;
#X msg 517 569 readXML \$1;
#X obj 501 263 symbol;
#X obj 534 239 r \$0_filename;
#X obj 517 544 symbol;
#X obj 550 517 r \$0_filename;
#X obj 517 594 s \$0_multimap_1;
#X obj 547 488 s \$0_multimap_1;
#X text 507 131 Saves the state;
#X text 506 374 Loads the state;
#X text 1019 162 Print current state;
#X msg 412 479 keys;
#X msg 412 565 get \$1;
#X obj 412 538 t a a;
#X obj 753 -58 r \$0_multimap_1;
#X obj 501 311 s \$0_multimap_1;
#X obj 501 187 t b b;
#X obj 528 210 s state_dump;
#X obj 97 319 bng 15 250 50 0 empty empty empty 17 7 0 10 -262144 -1
-1;
#X obj -36 575 s \$0_filename;
#X text 53 575 Filename for saving;
#X obj 97 375 t b a;
#X obj -36 528 pack s s;
#X msg 124 399 set \$1;
#X obj -36 504 symbol;
#X obj -36 437 t b a;
#X text 899 -95 tof -> folderpanel;
#X obj 97 346 folderpanel;
#X text 121 317 Select working folder;
#X obj 97 479 l2s;
#X obj -36 552 makesymbol %s/%s;
#X obj 124 421 outlet;
#X obj 752 61 inlet;
#X obj 315 742 print;
#X obj 315 720 pack f s;
#X obj 315 692 spigot;
#X obj 348 669 tgl 15 0 empty empty empty 17 7 0 10 -262144 -1 -1 0
1;
#X text 275 667 verbos load;
#X obj 865 285 s \$0_state_save;
#X obj 827 308 s \$0_state_load;
#X obj 500 402 r \$0_state_load;
#X obj 501 158 r \$0_state_save;
#X obj -36 405 makefilename %s.xml;
#X obj -36 371 r \$0_name;
#X obj -37 282 symbol name;
#X obj -37 257 loadbang;
#X obj -95 406 symbol;
#X obj -95 436 t b s;
#X obj 789 410 s \$0_name_symbol;
#X obj 852 356 symbol;
#X obj 789 384 ftos;
#X obj 789 332 route float;
#X obj 796 357 r \$0-num;
#X msg 979 163 clear;
#X obj 752 433 s \$0_dir;
#X obj -95 371 r \$0_dir;
#X obj -37 310 s \$0_name_symbol;
#X obj -37 233 bng 15 250 50 0 empty empty empty 17 7 0 10 -262144
-1 -1;
#X msg 684 519 getsize;
#X obj 706 584 nbx 5 14 -1e+37 1e+37 0 0 empty empty empty 0 -8 0 10
-262144 -1 -1 0 256;
#X obj 630 664 cup;
#X obj 630 687 ==;
#X obj 630 632 b;
#X obj 630 711 sel 1;
#X obj 665 632 1;
#X obj 867 752 s state_save_toggle;
#X obj 867 504 0;
#X obj 630 755 s state_save_toggle;
#X obj 630 733 1;
#X obj 500 440 t b b b b;
#X obj 665 470 t b b b;
#X obj 0 0 cnv 15 400 120 empty \$0_label_namespace global_space 20
15 0 14 -204800 -66577 0;
#X obj 412 592 h_map \$1;
#X obj 684 556 h_map \$1;
#X obj 753 -32 h_map \$1;
#X obj 401 -96 loadbang;
#X obj 744 519 r \$0_map_namespace;
#X obj 353 442 r \$0_map_namespace;
#X obj 634 -58 r \$0_map_namespace;
#X obj 1017 112 symbol;
#X obj 905 -33 purepd/symbol_argument \$1 global_space;
#X obj 905 -58 loadbang;
#X obj 401 -64 r \$0_namespace;
#X msg 401 -32 label \$1;
#X obj 401 46 s \$0_map_namespace;
#X msg 401 23 namespace \$1;
#X obj 401 -9 s \$0_label_namespace;
#X obj 905 -8 s \$0_namespace;
#X obj 1017 136 s \$0_namespace;
#X obj 412 509 h_map \$1;
#X obj 440 678 pack s s;
#X obj 485 654 r \$0_namespace;
#X obj 97 291 r \$0_folder_select;
#X obj 918 215 r \$0_namespace;
#X obj 903 263 s;
#X msg 918 239 symbol /\$1/line_time;
#X obj 753 -5 print state;
#X text 113 752 Para OSC;
#X msg 97 441 symbol;
#X obj 175 752 s pack_osc;
#X msg 427 703 symbol /\$2\$1;
#X obj 551 743 s;
#X obj 175 683 prepend;
#X obj 175 718 list trim;
#X obj 752 86 route dir name load save time print clear namespace dump
;
#X obj 412 396 r \$0_dump;
#X obj 1073 109 s \$0_dump;
#X obj 279 58 bng 20 250 50 0 empty empty Folder -4 -7 0 8 -262144
-1 -1;
#X obj 167 249 s \$0_state_save;
#X obj 193 226 s \$0_state_load;
#X symbolatom 77 48 13 0 0 0 - #0_name_symbol -, f 13;
#X obj -63 54 s \$0_name;
#X obj 224 61 nbx 4 14 0 1e+37 0 0 empty \$0-time Line.Time 0 -8 0
9 -262144 -1 -1 0 256;
#X obj 77 70 hradio 10 1 0 8 \$0-num empty empty 0 -8 0 10 -262144
-1 -1 0;
#X msg 154 -22 set \$1;
#X obj 167 58 bng 20 250 50 0 empty empty Save 0 -7 0 8 -262144 -1
-1;
#X obj 193 58 bng 20 250 50 0 empty empty Load 0 -7 0 8 -262144 -1
-1;
#X obj 239 155 r \$0_namespace;
#X obj 224 204 s;
#X obj 279 132 s \$0_folder_select;
#X obj 154 -46 iem_receive;
#X obj 154 -99 r \$0_namespace;
#X msg 239 179 symbol /\$1/line_time;
#X msg 154 -71 set /\$1/line_time;
#X connect 0 0 3 0;
#X connect 2 0 11 0;
#X connect 4 0 19 0;
#X connect 5 0 10 0;
#X connect 6 0 4 0;
#X connect 7 0 6 1;
#X connect 8 0 5 0;
#X connect 9 0 8 1;
#X connect 15 0 93 0;
#X connect 16 0 76 0;
#X connect 17 0 16 0;
#X connect 17 1 94 0;
#X connect 17 1 105 1;
#X connect 17 1 106 1;
#X connect 18 0 78 0;
#X connect 20 0 6 0;
#X connect 20 1 21 0;
#X connect 22 0 31 0;
#X connect 25 0 102 0;
#X connect 25 1 27 0;
#X connect 26 0 34 0;
#X connect 27 0 102 0;
#X connect 27 0 35 0;
#X connect 28 0 26 0;
#X connect 29 0 28 0;
#X connect 29 1 26 1;
#X connect 31 0 25 0;
#X connect 33 0 28 1;
#X connect 34 0 23 0;
#X connect 36 0 108 0;
#X connect 38 0 37 0;
#X connect 39 0 38 0;
#X connect 40 0 39 1;
#X connect 44 0 73 0;
#X connect 45 0 20 0;
#X connect 46 0 29 0;
#X connect 47 0 46 0;
#X connect 48 0 60 0;
#X connect 49 0 48 0;
#X connect 50 0 51 0;
#X connect 51 0 28 0;
#X connect 51 1 28 1;
#X connect 53 0 52 0;
#X connect 54 0 52 0;
#X connect 55 0 54 0;
#X connect 55 1 53 0;
#X connect 56 0 54 0;
#X connect 57 0 3 0;
#X connect 59 0 50 0;
#X connect 62 0 77 0;
#X connect 63 0 65 1;
#X connect 64 0 65 0;
#X connect 65 0 67 0;
#X connect 66 0 64 0;
#X connect 67 0 72 0;
#X connect 68 0 64 0;
#X connect 70 0 69 0;
#X connect 72 0 71 0;
#X connect 73 0 15 0;
#X connect 73 1 8 0;
#X connect 73 2 2 0;
#X connect 73 3 74 0;
#X connect 74 0 68 0;
#X connect 74 1 62 0;
#X connect 74 2 70 0;
#X connect 76 0 1 0;
#X connect 76 0 39 0;
#X connect 76 0 66 0;
#X connect 76 0 105 0;
#X connect 76 0 106 0;
#X connect 77 1 63 0;
#X connect 80 0 77 0;
#X connect 81 0 76 0;
#X connect 81 0 93 0;
#X connect 82 0 78 0;
#X connect 83 0 92 0;
#X connect 84 0 91 0;
#X connect 85 0 84 0;
#X connect 86 0 87 0;
#X connect 86 0 89 0;
#X connect 87 0 90 0;
#X connect 89 0 88 0;
#X connect 93 0 17 0;
#X connect 94 0 104 0;
#X connect 95 0 94 1;
#X connect 96 0 22 0;
#X connect 97 0 99 0;
#X connect 99 0 98 1;
#X connect 102 0 33 0;
#X connect 104 0 1 1;
#X connect 104 0 38 1;
#X connect 106 0 107 0;
#X connect 107 0 103 0;
#X connect 108 0 58 0;
#X connect 108 1 55 0;
#X connect 108 2 43 0;
#X connect 108 3 42 0;
#X connect 108 4 98 0;
#X connect 108 5 0 0;
#X connect 108 6 57 0;
#X connect 108 7 83 0;
#X connect 108 8 110 0;
#X connect 109 0 15 0;
#X connect 111 0 123 0;
#X connect 114 0 115 0;
#X connect 116 0 122 0;
#X connect 118 0 116 0;
#X connect 119 0 112 0;
#X connect 120 0 113 0;
#X connect 121 0 126 0;
#X connect 124 0 118 0;
#X connect 125 0 127 0;
#X connect 126 0 122 1;
#X connect 127 0 124 0;
#X coords 0 -1 1 1 400 120 2 0 0;
