#N canvas 387 233 614 353 10;
#X obj 201 101 nbx 5 14 -1e+37 1e+37 0 1 empty empty empty 0 -8 0 10
-262144 -1 -1 9960 256;
#X msg 201 142 port \$1;
#X obj 201 243 s unpacked_osc;
#X obj 201 189 unpackOSC;
#X obj 100 100 cnv 15 100 15 empty \$0_cnv_text OSC.RECEIVE 1 7 0 14
-233017 -66577 0;
#X obj 271 100 cnv 13 159 15 empty \$0_ip_text empty 0 8 0 14 -233017
-66577 0;
#X obj 289 213 route received total from multicast;
#X obj 392 235 l2s;
#X obj 392 279 s \$0_ip_text;
#X msg 392 256 label \$1;
#X obj 289 190 spigot;
#X msg 516 262 label;
#X obj 516 241 loadbang;
#X msg 557 262 0;
#X obj 409 149 sel 0;
#X obj 201 167 udpreceive 8000;
#X obj 256 100 tgl 15 1 empty empty empty 17 7 0 10 -262144 -1 -1 0
1;
#X connect 0 0 1 0;
#X connect 1 0 15 0;
#X connect 3 0 2 0;
#X connect 6 2 7 0;
#X connect 7 0 9 0;
#X connect 9 0 8 0;
#X connect 10 0 6 0;
#X connect 11 0 8 0;
#X connect 12 0 11 0;
#X connect 12 0 13 0;
#X connect 13 0 16 0;
#X connect 14 0 11 0;
#X connect 15 0 3 0;
#X connect 15 1 10 0;
#X connect 16 0 10 1;
#X connect 16 0 14 0;
#X coords 0 -1 1 1 330 15 2 100 100;
