#N canvas 218 126 572 425 10;
#X declare -lib pdcontainer;
#X declare -lib pdcontainer;
#X declare -lib pdcontainer;
#X obj 100 100 cnv 15 140 120 empty empty RECORD/PLAYER 20 12 0 10
-261234 -66577 0;
#X obj 47 48 r canvas_name_\$0;
#X obj 114 150 bng 15 250 50 0 empty empty Load 20 9 0 12 -262144 -1
-1;
#X obj 112 168 ui_play_stop_control;
#X obj 112 190 ui_player_control;
#X obj 112 128 ui_rec_stop_control;
#X obj 280 154 s /loadaudio;
#X connect 1 0 4 0;
#X connect 1 0 3 0;
#X connect 1 0 5 0;
#X connect 2 0 6 0;
#X coords 0 -1 1 1 140 120 1 100 100;
