#N canvas 183 155 450 300 10;
#X obj 110 49 inlet~;
#X obj 111 189 outlet~;
#X obj 132 86 s~ rec_\$1;
#X obj 132 116 r~ play_\$1;
#X floatatom 40 113 4 0 0 0 - - -;
#X obj 40 85 r /\$1/player;
#X obj 110 151 multiplex~;
#X connect 0 0 2 0;
#X connect 0 0 6 0;
#X connect 3 0 6 1;
#X connect 4 0 6 0;
#X connect 5 0 4 0;
#X connect 6 0 1 0;
