#N canvas 0 8 1023 500 10;
#X obj 117 357 writesf~ 8;
#X msg 14 154 start;
#X msg 56 154 stop;
#X obj 14 9 bng 15 250 50 0 empty empty empty 17 7 0 10 -262144 -1
-1;
#X msg 98 154 open -bytes 3 \$1.wav;
#X obj 311 87 date;
#X floatatom 385 117 0 0 0 0 - - -;
#X floatatom 348 116 0 0 0 0 - - -;
#X floatatom 311 117 0 0 0 0 - - -;
#X text 351 140 month;
#X text 315 140 year;
#X floatatom 504 117 0 0 0 0 - - -;
#X floatatom 463 117 0 0 0 0 - - -;
#X floatatom 423 117 0 0 0 0 - - -;
#X obj 423 87 time;
#X text 511 133 sec;
#X text 468 134 min;
#X text 427 134 hours;
#X symbolatom 311 336 0 0 0 0 - - -;
#X obj 311 234 makesymbol;
#X obj 545 159 symbol;
#X obj 589 159 symbol;
#X msg 545 117 -;
#X msg 589 116 _;
#X obj 423 206 pack f s f s f;
#X obj 311 206 pack f s f s f s;
#X obj 632 159 symbol;
#X msg 632 116 .;
#X obj 423 234 makesymbol;
#X obj 311 262 list;
#X obj 311 287 makesymbol;
#X obj 545 59 loadbang;
#X obj 311 62 t b b;
#X text 388 140 day;
#X obj 14 45 t b b;
#X obj 117 178 r~ rec_CH1;
#X obj 126 199 r~ rec_CH2;
#X obj 142 242 r~ rec_CH4;
#X obj 134 221 r~ rec_CH3;
#X obj 149 264 r~ rec_CH5;
#X obj 158 285 r~ rec_CH6;
#X obj 166 306 r~ rec_CH7;
#X obj 174 327 r~ rec_CH8;
#X obj 14 -55 tgl 15 0 empty empty Rec/Stop 20 9 0 12 -258113 -1 -1
0 1;
#X obj 796 160 readsf~ 8;
#X obj 795 343 s~ play_CH1;
#X obj 803 322 s~ play_CH2;
#X obj 809 301 s~ play_CH3;
#X obj 816 279 s~ play_CH4;
#X obj 822 258 s~ play_CH5;
#X obj 828 237 s~ play_CH6;
#X obj 834 216 s~ play_CH7;
#X obj 841 195 s~ play_CH8;
#X obj 796 44 openpanel;
#X msg 796 117 open \$1;
#X msg 702 118 start;
#X msg 746 118 stop;
#X obj 702 -55 tgl 15 0 empty empty Play/Stop 20 9 0 12 -4034 -1 -1
0 1;
#X obj 56 9 bng 15 250 50 0 empty empty empty 17 7 0 10 -262144 -1
-1;
#X obj 14 -29 select 1 0;
#X obj 702 9 bng 15 250 50 0 empty empty empty 17 7 0 10 -262144 -1
-1;
#X obj 746 9 bng 15 250 50 0 empty empty empty 17 7 0 10 -262144 -1
-1;
#X obj 702 -29 select 1 0;
#X obj 796 -55 bng 15 250 50 0 empty empty Load 20 9 0 12 -262144 -1
-1;
#X obj 311 312 makefilename ../../recordings/rec_%s;
#X obj 702 45 t b b;
#X obj 888 97 select symbol;
#X obj 888 153 print;
#X msg 888 125 SELECT A FILE!!!;
#X symbolatom 796 80 0 0 0 0 - - -;
#X obj 702 -91 r /play-stop;
#X obj 14 -91 r /rec-stop;
#X msg 938 206 0;
#X obj 938 157 bng 15 250 50 0 empty empty empty 17 7 0 10 -262144
-1 -1;
#X obj 938 179 delay 50;
#X obj 938 232 s /play-stop;
#X obj 796 -91 r /loadaudio;
#X connect 1 0 0 0;
#X connect 2 0 0 0;
#X connect 3 0 34 0;
#X connect 4 0 0 0;
#X connect 5 0 8 0;
#X connect 5 1 7 0;
#X connect 5 2 6 0;
#X connect 6 0 25 4;
#X connect 7 0 25 2;
#X connect 8 0 25 0;
#X connect 11 0 24 4;
#X connect 12 0 24 2;
#X connect 13 0 24 0;
#X connect 14 0 13 0;
#X connect 14 1 12 0;
#X connect 14 2 11 0;
#X connect 19 0 29 0;
#X connect 20 0 25 1;
#X connect 20 0 25 3;
#X connect 21 0 25 5;
#X connect 22 0 20 0;
#X connect 23 0 21 0;
#X connect 24 0 28 0;
#X connect 25 0 19 0;
#X connect 26 0 24 1;
#X connect 26 0 24 3;
#X connect 27 0 26 0;
#X connect 28 0 29 1;
#X connect 29 0 30 0;
#X connect 30 0 64 0;
#X connect 31 0 22 0;
#X connect 31 0 23 0;
#X connect 31 0 27 0;
#X connect 32 0 5 0;
#X connect 32 1 14 0;
#X connect 34 0 1 0;
#X connect 34 1 32 0;
#X connect 35 0 0 0;
#X connect 36 0 0 1;
#X connect 37 0 0 3;
#X connect 38 0 0 2;
#X connect 39 0 0 4;
#X connect 40 0 0 5;
#X connect 41 0 0 6;
#X connect 42 0 0 7;
#X connect 43 0 59 0;
#X connect 44 0 45 0;
#X connect 44 1 46 0;
#X connect 44 2 47 0;
#X connect 44 3 48 0;
#X connect 44 4 49 0;
#X connect 44 5 50 0;
#X connect 44 6 51 0;
#X connect 44 7 52 0;
#X connect 53 0 69 0;
#X connect 54 0 44 0;
#X connect 55 0 44 0;
#X connect 56 0 44 0;
#X connect 57 0 62 0;
#X connect 58 0 2 0;
#X connect 59 0 3 0;
#X connect 59 1 58 0;
#X connect 60 0 65 0;
#X connect 61 0 56 0;
#X connect 62 0 60 0;
#X connect 62 1 61 0;
#X connect 63 0 53 0;
#X connect 64 0 18 0;
#X connect 64 0 4 0;
#X connect 65 0 55 0;
#X connect 65 1 69 0;
#X connect 66 0 68 0;
#X connect 68 0 67 0;
#X connect 68 0 73 0;
#X connect 69 0 54 0;
#X connect 69 0 66 0;
#X connect 70 0 57 0;
#X connect 71 0 43 0;
#X connect 72 0 75 0;
#X connect 73 0 74 0;
#X connect 74 0 72 0;
#X connect 76 0 63 0;
#X coords 0 500 1 499 85 85 0;
